<svg xmlns="http://www.w3.org/2000/svg" width="246" height="81" viewBox="0 0 246 81">
  <g id="Group_6456" data-name="Group 6456" transform="translate(-330 -6522)">
    <rect id="Rectangle_2303" data-name="Rectangle 2303" width="246" height="81" rx="5" transform="translate(330 6522)" fill="#fff"/>
    <g id="Group_6452" data-name="Group 6452" transform="translate(0.433)">
      <g id="icon" transform="translate(351.567 6539)">
        <path id="Fill-2" d="M32.078,82.008A10.762,10.762,0,0,1,37.186,73a11.07,11.07,0,0,0-8.663-4.69c-3.639-.384-7.177,2.187-9.03,2.187-1.886,0-4.757-2.136-7.828-2.086a11.51,11.51,0,0,0-9.7,5.925C-2.222,81.591.9,92.274,4.922,98.149c2.02,2.871,4.356,6.092,7.444,5.975,3-.117,4.139-1.919,7.761-1.919,3.605,0,4.657,1.919,7.795,1.853,3.238-.05,5.258-2.888,7.211-5.792a23.545,23.545,0,0,0,3.288-6.71,10.41,10.41,0,0,1-6.343-9.547" transform="translate(0.023 -56.871)" fill="#03a092"/>
        <path id="Fill-3" d="M121.469,7.578A10.589,10.589,0,0,0,123.889,0a10.737,10.737,0,0,0-6.96,3.605,10.154,10.154,0,0,0-2.487,7.294,8.9,8.9,0,0,0,7.027-3.322" transform="translate(-95.293)" fill="#03a092"/>
      </g>
      <g id="Group_6451" data-name="Group 6451" transform="translate(0 0.693)">
        <g id="Group_4838" data-name="Group 4838" transform="translate(406 6556.521)">
          <path id="Fill-4" d="M20.7,27.553H16.491l-2.3-7.244H6.176L3.989,27.553H-.1L7.828,2.9h4.907L20.7,27.553ZM13.5,17.271l-2.086-6.426c-.217-.668-.634-2.2-1.235-4.64H10.1c-.25,1.052-.634,2.6-1.168,4.64L6.877,17.271Z" transform="translate(0.1 -2.549)" fill="#03a092"/>
          <path id="Fill-5" d="M161.125,50.947a10.012,10.012,0,0,1-2.47,7.161,7.2,7.2,0,0,1-5.475,2.337,5.483,5.483,0,0,1-5.074-2.52v9.33H144.15V48.109c0-1.9-.05-3.839-.15-5.842h3.472l.217,2.821h.067a7.01,7.01,0,0,1,11.233-.7,9.669,9.669,0,0,1,2.136,6.56Zm-4.023.134a7.256,7.256,0,0,0-1.168-4.273,4.046,4.046,0,0,0-3.438-1.753,4.2,4.2,0,0,0-2.654.968,4.47,4.47,0,0,0-1.552,2.537,5.4,5.4,0,0,0-.184,1.2v2.971A4.779,4.779,0,0,0,149.291,56a3.944,3.944,0,0,0,3.088,1.335,4.075,4.075,0,0,0,3.472-1.719A7.54,7.54,0,0,0,157.1,51.08Z" transform="translate(-119.948 -35.04)" fill="#03a092"/>
          <path id="Fill-6" d="M283.525,50.947a10.012,10.012,0,0,1-2.47,7.161,7.2,7.2,0,0,1-5.475,2.337,5.483,5.483,0,0,1-5.074-2.52v9.33H266.55V48.109c0-1.9-.05-3.839-.15-5.842h3.472l.217,2.821h.067a7.01,7.01,0,0,1,11.233-.7,9.669,9.669,0,0,1,2.136,6.56Zm-4.023.134a7.256,7.256,0,0,0-1.168-4.273,4.046,4.046,0,0,0-3.438-1.753,4.2,4.2,0,0,0-2.654.968,4.56,4.56,0,0,0-1.552,2.537,5.405,5.405,0,0,0-.184,1.2v2.971A4.779,4.779,0,0,0,271.691,56a3.944,3.944,0,0,0,3.088,1.335,4.054,4.054,0,0,0,3.472-1.719A7.427,7.427,0,0,0,279.5,51.08Z" transform="translate(-221.918 -35.04)" fill="#03a092"/>
          <path id="Fill-7" d="M429.773,18.893a6.6,6.6,0,0,1-2.187,5.124,9.7,9.7,0,0,1-6.71,2.153,11.741,11.741,0,0,1-6.376-1.536l.918-3.288a11.087,11.087,0,0,0,5.708,1.536,5.376,5.376,0,0,0,3.472-1,3.271,3.271,0,0,0,1.252-2.687,3.476,3.476,0,0,0-1.018-2.52,9.531,9.531,0,0,0-3.405-1.9c-4.356-1.619-6.51-3.973-6.51-7.06A6.262,6.262,0,0,1,417.2,2.736,9.07,9.07,0,0,1,423.263.8a11.911,11.911,0,0,1,5.592,1.168l-1,3.2a9.852,9.852,0,0,0-4.74-1.135,4.918,4.918,0,0,0-3.271,1.018,2.962,2.962,0,0,0-.985,2.237,3,3,0,0,0,1.135,2.4,12.735,12.735,0,0,0,3.589,1.9,12.032,12.032,0,0,1,4.674,3,6.245,6.245,0,0,1,1.519,4.29" transform="translate(-345.298 -0.8)" fill="#03a092"/>
          <path id="Fill-8" d="M530.416,24.994H526.06v8.629c0,2.187.768,3.288,2.3,3.288a7.326,7.326,0,0,0,1.753-.184l.117,3a9.16,9.16,0,0,1-3.071.434,4.727,4.727,0,0,1-3.655-1.435c-.885-.951-1.319-2.554-1.319-4.79V24.978H519.6V22.023h2.587V18.768L526.06,17.6v4.423h4.356v2.971" transform="translate(-432.856 -14.796)" fill="#03a092"/>
          <path id="Fill-9" d="M614.909,51.1a9.764,9.764,0,0,1-2.337,6.727,8.365,8.365,0,0,1-6.51,2.7,8.01,8.01,0,0,1-6.243-2.587A9.4,9.4,0,0,1,597.5,51.4a9.7,9.7,0,0,1,2.387-6.76A8.33,8.33,0,0,1,606.346,42a8.123,8.123,0,0,1,6.293,2.6A9.278,9.278,0,0,1,614.909,51.1Zm-4.089.083a7.966,7.966,0,0,0-1.052-4.19,4.1,4.1,0,0,0-7.177,0,8,8,0,0,0-1.052,4.273,7.925,7.925,0,0,0,1.052,4.19,4.054,4.054,0,0,0,7.144-.033A8.089,8.089,0,0,0,610.82,51.18Z" transform="translate(-497.753 -35.123)" fill="#03a092"/>
          <path id="Fill-10" d="M731.231,45.739a7.318,7.318,0,0,0-1.252-.1,3.727,3.727,0,0,0-3.221,1.569,5.955,5.955,0,0,0-.985,3.505v9.33h-3.956V47.859c0-2.053-.033-3.922-.117-5.592h3.438l.15,3.405h.117a6.059,6.059,0,0,1,1.97-2.821,4.8,4.8,0,0,1,2.854-.951,8.313,8.313,0,0,1,.985.067l.017,3.772" transform="translate(-601.223 -35.04)" fill="#03a092"/>
          <path id="Fill-11" d="M805.707,50.062a9.024,9.024,0,0,1-.15,1.786H793.706a5.152,5.152,0,0,0,1.719,4.023,5.918,5.918,0,0,0,3.872,1.235,13.3,13.3,0,0,0,4.79-.835l.618,2.737a14.832,14.832,0,0,1-5.959,1.1,8.633,8.633,0,0,1-6.493-2.437,9,9,0,0,1-2.354-6.526,10.2,10.2,0,0,1,2.2-6.693,7.562,7.562,0,0,1,6.209-2.854,6.6,6.6,0,0,1,5.809,2.854A9.654,9.654,0,0,1,805.707,50.062Zm-3.772-1.018a5.321,5.321,0,0,0-.768-3.038,3.446,3.446,0,0,0-3.138-1.652,3.751,3.751,0,0,0-3.138,1.6,5.936,5.936,0,0,0-1.168,3.071Z" transform="translate(-658.039 -34.79)" fill="#03a092"/>
        </g>
        <g id="Available-on-the" transform="translate(406 6535.306)">
          <path id="Fill-12" d="M9.932,16.618H7.862L6.727,13.063H2.788L1.7,16.618h-2L3.589,4.5h2.4ZM6.376,11.56,5.358,8.389c-.1-.317-.3-1.085-.618-2.287H4.707c-.134.517-.3,1.269-.584,2.287l-1,3.171Z" transform="translate(0.3 -3.866)" fill="#03a092"/>
          <path id="Fill-13" d="M77.5,24.7l-3.3,8.746H72.3L69.1,24.7h2.086l1.486,4.623c.25.768.467,1.5.634,2.2h.05c.15-.634.367-1.369.634-2.2L75.459,24.7H77.5" transform="translate(-57.516 -20.694)" fill="#03a092"/>
          <path id="Fill-14" d="M134.525,32.7l-.15-1h-.05a3,3,0,0,1-2.554,1.2,2.535,2.535,0,0,1-2.671-2.57c0-2.153,1.869-3.271,5.108-3.271v-.167c0-1.152-.618-1.719-1.819-1.719a4.077,4.077,0,0,0-2.287.651l-.4-1.269a5.611,5.611,0,0,1,3-.751c2.287,0,3.438,1.2,3.438,3.622v3.221a11.633,11.633,0,0,0,.134,2.086l-1.753-.033Zm-.267-4.356c-2.153,0-3.238.517-3.238,1.769a1.238,1.238,0,0,0,1.335,1.369,1.857,1.857,0,0,0,1.9-1.786Z" transform="translate(-107.502 -19.944)" fill="#03a092"/>
          <path id="Fill-15" d="M191.452,4.52A1.137,1.137,0,0,1,190.3,3.352a1.186,1.186,0,0,1,2.37,0A1.135,1.135,0,0,1,191.452,4.52Zm-.935,1.435h1.936v8.73h-1.936Z" transform="translate(-158.487 -1.95)" fill="#03a092"/>
          <path id="Fill-16" d="M223.9.7h1.936V13.435H223.9Z" transform="translate(-186.478 -0.7)" fill="#03a092"/>
          <path id="Fill-17" d="M257.825,32.613l-.15-1h-.05a3,3,0,0,1-2.554,1.2,2.535,2.535,0,0,1-2.671-2.57c0-2.153,1.869-3.271,5.108-3.271V26.8c0-1.152-.618-1.719-1.819-1.719a4.077,4.077,0,0,0-2.287.651l-.4-1.285a5.611,5.611,0,0,1,3-.751c2.287,0,3.438,1.2,3.438,3.622v3.221a13.806,13.806,0,0,0,.117,2.086h-1.736v-.017Zm-.267-4.356c-2.153,0-3.238.517-3.238,1.769a1.238,1.238,0,0,0,1.335,1.369,1.857,1.857,0,0,0,1.9-1.786Z" transform="translate(-210.221 -19.861)" fill="#03a092"/>
          <path id="Fill-18" d="M319.057,13.652A2.974,2.974,0,0,1,316.3,12.1h-.033l-.117,1.352H314.5c.05-.7.067-1.486.067-2.353V.7h1.953V5.991h.033a3,3,0,0,1,2.787-1.452c2.1,0,3.572,1.8,3.572,4.423C322.912,11.666,321.277,13.652,319.057,13.652Zm-.4-7.595a2.229,2.229,0,0,0-2.136,2.32V9.914a2.135,2.135,0,0,0,2.1,2.187c1.452,0,2.32-1.185,2.32-3.071,0-1.769-.9-2.971-2.287-2.971Z" transform="translate(-261.956 -0.7)" fill="#03a092"/>
          <path id="Fill-19" d="M382.1.7h1.936V13.435H382.1Z" transform="translate(-318.273 -0.7)" fill="#03a092"/>
          <path id="Fill-20" d="M418.595,28.541h-5.825a2.508,2.508,0,0,0,2.754,2.587,6.566,6.566,0,0,0,2.353-.417l.3,1.352a7.079,7.079,0,0,1-2.921.534A4.056,4.056,0,0,1,410.9,28.19c0-2.671,1.652-4.69,4.139-4.69,2.22,0,3.639,1.652,3.639,4.156A3.383,3.383,0,0,1,418.595,28.541Zm-1.769-1.385c0-1.352-.684-2.3-1.92-2.3a2.3,2.3,0,0,0-2.12,2.3Z" transform="translate(-342.266 -19.694)" fill="#03a092"/>
          <path id="Fill-21" d="M506.506,32.813a4.154,4.154,0,0,1-4.206-4.49c0-2.7,1.686-4.623,4.356-4.623a4.123,4.123,0,0,1,4.206,4.473C510.863,30.894,509.127,32.813,506.506,32.813Zm.083-7.695c-1.4,0-2.3,1.319-2.3,3.138,0,1.8.918,3.1,2.287,3.1s2.287-1.4,2.287-3.155c-.017-1.769-.9-3.088-2.27-3.088Z" transform="translate(-418.41 -19.861)" fill="#03a092"/>
          <path id="Fill-22" d="M577.945,32.53h-1.936V27.506c0-1.552-.6-2.32-1.769-2.32a2.008,2.008,0,0,0-1.936,2.136v5.191h-1.936V26.287c0-.768-.017-1.6-.067-2.5H572l.083,1.352h.05a3.143,3.143,0,0,1,2.771-1.536c1.836,0,3.038,1.4,3.038,3.689V32.53" transform="translate(-475.06 -19.778)" fill="#03a092"/>
          <path id="Fill-23" d="M665.791,15.339h-2.137v4.24c0,1.085.384,1.619,1.135,1.619a4.247,4.247,0,0,0,.868-.083l.05,1.469a4.207,4.207,0,0,1-1.5.217c-1.536,0-2.437-.851-2.437-3.054V15.339H660.5V13.887h1.269v-1.6l1.9-.584v2.17h2.137v1.469" transform="translate(-550.204 -9.864)" fill="#03a092"/>
          <path id="Fill-24" d="M715.978,13.452h-1.936V8.461c0-1.569-.6-2.353-1.769-2.353a1.9,1.9,0,0,0-1.936,2.07v5.258H708.4V.7h1.936V5.941h.033a2.936,2.936,0,0,1,2.62-1.419c1.853,0,2.988,1.435,2.988,3.722v5.208" transform="translate(-590.109 -0.7)" fill="#03a092"/>
          <path id="Fill-25" d="M774.795,28.541H768.97a2.508,2.508,0,0,0,2.754,2.587,6.566,6.566,0,0,0,2.354-.417l.3,1.352a7.079,7.079,0,0,1-2.921.534A4.056,4.056,0,0,1,767.1,28.19c0-2.671,1.653-4.69,4.139-4.69,2.22,0,3.639,1.652,3.639,4.156A3.384,3.384,0,0,1,774.795,28.541Zm-1.769-1.385c0-1.352-.684-2.3-1.92-2.3a2.29,2.29,0,0,0-2.12,2.3Z" transform="translate(-639.011 -19.694)" fill="#03a092"/>
        </g>
      </g>
    </g>
  </g>
</svg>
