<svg id="App-Store" xmlns="http://www.w3.org/2000/svg" width="174.286" height="59" viewBox="0 0 174.286 59">
  <path id="background" d="M6.08,0H166.206a7.086,7.086,0,0,1,7.08,7.08V51.92a7.086,7.086,0,0,1-7.08,7.08H6.08A7.086,7.086,0,0,1-1,51.92V7.08A7.086,7.086,0,0,1,6.08,0Z" transform="translate(1)" fill="#03a092"/>
  <g id="icon" transform="translate(15.455 10.384)">
    <path id="Fill-2" d="M22.671,77.981a7.609,7.609,0,0,1,3.611-6.372,7.826,7.826,0,0,0-6.124-3.316c-2.572-.271-5.074,1.546-6.384,1.546-1.333,0-3.363-1.51-5.534-1.475a8.137,8.137,0,0,0-6.856,4.189C-1.578,77.686.629,85.238,3.473,89.392c1.428,2.03,3.08,4.307,5.263,4.224,2.124-.083,2.926-1.357,5.487-1.357s3.292,1.357,5.511,1.31c2.289-.035,3.717-2.041,5.1-4.095a16.645,16.645,0,0,0,2.325-4.744,7.359,7.359,0,0,1-4.484-6.75" transform="translate(0.023 -60.21)" fill="#fff"/>
    <path id="Fill-3" d="M119.395,5.357A7.486,7.486,0,0,0,121.106,0a7.591,7.591,0,0,0-4.921,2.549,7.179,7.179,0,0,0-1.758,5.157,6.289,6.289,0,0,0,4.968-2.348" transform="translate(-100.889)" fill="#fff"/>
  </g>
  <g id="Group_4838" data-name="Group 4838" transform="translate(54.268 25.818)">
    <path id="Fill-4" d="M14.6,20.329H11.629L10,15.207H4.337L2.791,20.329H-.1L5.5,2.9H8.974ZM9.517,13.06,8.042,8.517c-.153-.472-.448-1.558-.873-3.28H7.11c-.177.743-.448,1.841-.826,3.28L4.832,13.06Z" transform="translate(0.1 -2.652)" fill="#fff"/>
    <path id="Fill-5" d="M156.107,48.3a7.078,7.078,0,0,1-1.746,5.062,5.087,5.087,0,0,1-3.87,1.652,3.876,3.876,0,0,1-3.587-1.782v6.6h-2.8V46.29c0-1.345-.035-2.714-.106-4.13h2.454l.153,1.994h.047a4.956,4.956,0,0,1,7.941-.5,6.836,6.836,0,0,1,1.51,4.637Zm-2.844.094a5.13,5.13,0,0,0-.826-3.021,2.86,2.86,0,0,0-2.431-1.239,2.965,2.965,0,0,0-1.876.684,3.16,3.16,0,0,0-1.1,1.794,3.822,3.822,0,0,0-.13.85v2.1a3.378,3.378,0,0,0,.838,2.313,2.788,2.788,0,0,0,2.183.944,2.881,2.881,0,0,0,2.454-1.215,5.331,5.331,0,0,0,.885-3.21Z" transform="translate(-126.996 -37.05)" fill="#fff"/>
    <path id="Fill-6" d="M278.507,48.3a7.078,7.078,0,0,1-1.746,5.062,5.087,5.087,0,0,1-3.87,1.652,3.876,3.876,0,0,1-3.587-1.782v6.6h-2.8V46.29c0-1.345-.035-2.714-.106-4.13h2.454l.153,1.994h.047a4.956,4.956,0,0,1,7.941-.5,6.836,6.836,0,0,1,1.51,4.637Zm-2.844.094a5.13,5.13,0,0,0-.826-3.021,2.86,2.86,0,0,0-2.431-1.239,2.966,2.966,0,0,0-1.876.684,3.224,3.224,0,0,0-1.1,1.794,3.821,3.821,0,0,0-.13.85v2.1a3.379,3.379,0,0,0,.838,2.313,2.788,2.788,0,0,0,2.183.944,2.866,2.866,0,0,0,2.454-1.215,5.251,5.251,0,0,0,.885-3.21Z" transform="translate(-234.953 -37.05)" fill="#fff"/>
    <path id="Fill-7" d="M425.3,13.591a4.666,4.666,0,0,1-1.546,3.623,6.861,6.861,0,0,1-4.744,1.522A8.3,8.3,0,0,1,414.5,17.65l.649-2.325a7.837,7.837,0,0,0,4.036,1.086,3.8,3.8,0,0,0,2.454-.708,2.313,2.313,0,0,0,.885-1.9,2.457,2.457,0,0,0-.72-1.782,6.738,6.738,0,0,0-2.407-1.345c-3.08-1.145-4.6-2.808-4.6-4.991a4.427,4.427,0,0,1,1.617-3.516A6.412,6.412,0,0,1,420.7.8a8.42,8.42,0,0,1,3.953.826l-.708,2.266a6.965,6.965,0,0,0-3.351-.8,3.477,3.477,0,0,0-2.313.72,2.094,2.094,0,0,0-.7,1.581,2.119,2.119,0,0,0,.8,1.7,9,9,0,0,0,2.537,1.345,8.506,8.506,0,0,1,3.3,2.124,4.415,4.415,0,0,1,1.074,3.033" transform="translate(-365.577 -0.8)" fill="#fff"/>
    <path id="Fill-8" d="M527.246,22.827h-3.08v6.1c0,1.546.543,2.325,1.628,2.325a5.179,5.179,0,0,0,1.239-.13l.083,2.124a6.476,6.476,0,0,1-2.171.307,3.342,3.342,0,0,1-2.584-1.015,4.926,4.926,0,0,1-.932-3.387V22.816H519.6V20.727h1.829v-2.3l2.738-.826v3.127h3.08v2.1" transform="translate(-458.275 -15.618)" fill="#fff"/>
    <path id="Fill-9" d="M609.807,48.431a6.9,6.9,0,0,1-1.652,4.755,5.914,5.914,0,0,1-4.6,1.912,5.663,5.663,0,0,1-4.413-1.829,6.643,6.643,0,0,1-1.64-4.626,6.854,6.854,0,0,1,1.687-4.779A5.889,5.889,0,0,1,603.754,42a5.742,5.742,0,0,1,4.449,1.841A6.559,6.559,0,0,1,609.807,48.431Zm-2.891.059a5.632,5.632,0,0,0-.743-2.962,2.9,2.9,0,0,0-5.074,0,6.389,6.389,0,0,0,0,5.983,2.866,2.866,0,0,0,5.05-.024A5.719,5.719,0,0,0,606.916,48.49Z" transform="translate(-526.983 -37.138)" fill="#fff"/>
    <path id="Fill-10" d="M728.438,44.614a5.173,5.173,0,0,0-.885-.071,2.635,2.635,0,0,0-2.277,1.109,4.21,4.21,0,0,0-.7,2.478v6.6h-2.8V46.113c0-1.451-.024-2.773-.083-3.953h2.431l.106,2.407h.083a4.284,4.284,0,0,1,1.392-1.994,3.4,3.4,0,0,1,2.018-.673,5.875,5.875,0,0,1,.7.047l.012,2.667" transform="translate(-636.528 -37.05)" fill="#fff"/>
    <path id="Fill-11" d="M801.075,47.583a6.383,6.383,0,0,1-.106,1.263H792.59a3.643,3.643,0,0,0,1.215,2.844,4.184,4.184,0,0,0,2.738.873,9.4,9.4,0,0,0,3.387-.59l.437,1.935a10.486,10.486,0,0,1-4.213.779,6.1,6.1,0,0,1-4.59-1.723A6.361,6.361,0,0,1,789.9,48.35a7.21,7.21,0,0,1,1.558-4.732,5.346,5.346,0,0,1,4.39-2.018,4.663,4.663,0,0,1,4.106,2.018A6.825,6.825,0,0,1,801.075,47.583Zm-2.667-.72a3.762,3.762,0,0,0-.543-2.148,2.436,2.436,0,0,0-2.218-1.168,2.652,2.652,0,0,0-2.218,1.133,4.2,4.2,0,0,0-.826,2.171Z" transform="translate(-696.68 -36.786)" fill="#fff"/>
  </g>
  <g id="Available-on-the" transform="translate(55.307 10.821)">
    <path id="Fill-12" d="M6.933,13.067H5.47l-.8-2.513H1.883l-.767,2.513H-.3L2.449,4.5h1.7ZM4.42,9.491,3.7,7.249c-.071-.224-.212-.767-.437-1.617H3.24c-.094.366-.212.9-.413,1.617L2.119,9.491Z" transform="translate(0.3 -4.052)" fill="#fff"/>
    <path id="Fill-13" d="M75.035,24.7,72.7,30.883H71.366L69.1,24.7h1.475l1.05,3.269c.177.543.33,1.062.448,1.558h.035c.106-.448.26-.968.448-1.558L73.6,24.7h1.44" transform="translate(-60.911 -21.868)" fill="#fff"/>
    <path id="Fill-14" d="M132.935,30.089l-.106-.708h-.035a2.124,2.124,0,0,1-1.805.85,1.792,1.792,0,0,1-1.888-1.817c0-1.522,1.322-2.313,3.611-2.313v-.118c0-.814-.437-1.215-1.286-1.215a2.882,2.882,0,0,0-1.617.46l-.283-.9a3.967,3.967,0,0,1,2.124-.531c1.617,0,2.431.85,2.431,2.561v2.277a8.225,8.225,0,0,0,.094,1.475l-1.239-.024Zm-.189-3.08c-1.522,0-2.289.366-2.289,1.251a.875.875,0,0,0,.944.968,1.313,1.313,0,0,0,1.345-1.263Z" transform="translate(-113.831 -21.074)" fill="#fff"/>
    <path id="Fill-15" d="M191.114,3.84a.8.8,0,0,1-.814-.826.838.838,0,0,1,1.676,0A.8.8,0,0,1,191.114,3.84Zm-.661,1.015h1.369v6.171h-1.369Z" transform="translate(-167.809 -2.023)" fill="#fff"/>
    <path id="Fill-16" d="M223.9.7h1.369v9H223.9Z" transform="translate(-197.444 -0.7)" fill="#fff"/>
    <path id="Fill-17" d="M256.235,30l-.106-.708h-.035a2.124,2.124,0,0,1-1.805.85,1.792,1.792,0,0,1-1.888-1.817c0-1.522,1.322-2.313,3.611-2.313v-.118c0-.814-.437-1.215-1.286-1.215a2.882,2.882,0,0,0-1.617.46l-.283-.909a3.967,3.967,0,0,1,2.124-.531c1.617,0,2.431.85,2.431,2.561v2.277a9.757,9.757,0,0,0,.083,1.475h-1.227V30Zm-.189-3.08c-1.522,0-2.289.366-2.289,1.251a.875.875,0,0,0,.944.968,1.313,1.313,0,0,0,1.345-1.263Z" transform="translate(-222.581 -20.986)" fill="#fff"/>
    <path id="Fill-18" d="M317.721,9.857a2.1,2.1,0,0,1-1.947-1.1h-.024l-.083.956H314.5c.035-.5.047-1.05.047-1.664V.7h1.381V4.441h.024a2.123,2.123,0,0,1,1.971-1.027c1.487,0,2.525,1.274,2.525,3.127C320.447,8.453,319.291,9.857,317.721,9.857Zm-.283-5.369a1.576,1.576,0,0,0-1.51,1.64V7.214a1.509,1.509,0,0,0,1.487,1.546c1.027,0,1.64-.838,1.64-2.171,0-1.251-.637-2.1-1.617-2.1Z" transform="translate(-277.354 -0.7)" fill="#fff"/>
    <path id="Fill-19" d="M382.1.7h1.369v9H382.1Z" transform="translate(-336.977 -0.7)" fill="#fff"/>
    <path id="Fill-20" d="M416.34,27.064h-4.118a1.773,1.773,0,0,0,1.947,1.829,4.641,4.641,0,0,0,1.664-.295l.212.956a5,5,0,0,1-2.065.378,2.867,2.867,0,0,1-3.08-3.115,3.017,3.017,0,0,1,2.926-3.316c1.569,0,2.572,1.168,2.572,2.938a2.392,2.392,0,0,1-.059.625Zm-1.251-.979c0-.956-.484-1.628-1.357-1.628a1.628,1.628,0,0,0-1.5,1.628Z" transform="translate(-362.378 -20.81)" fill="#fff"/>
    <path id="Fill-21" d="M505.274,30.143a2.937,2.937,0,0,1-2.974-3.174,3.007,3.007,0,0,1,3.08-3.269,2.915,2.915,0,0,1,2.974,3.162A3.03,3.03,0,0,1,505.274,30.143Zm.059-5.44c-.991,0-1.628.932-1.628,2.218s.649,2.195,1.617,2.195,1.617-.991,1.617-2.23S506.3,24.7,505.333,24.7Z" transform="translate(-442.993 -20.986)" fill="#fff"/>
    <path id="Fill-22" d="M575.7,29.913h-1.369V26.361c0-1.1-.425-1.64-1.251-1.64a1.42,1.42,0,0,0-1.369,1.51V29.9h-1.369V25.5c0-.543-.012-1.133-.047-1.77h1.2l.059.956h.035a2.222,2.222,0,0,1,1.959-1.086c1.3,0,2.148.991,2.148,2.608v3.705" transform="translate(-502.969 -20.898)" fill="#fff"/>
    <path id="Fill-23" d="M664.241,14.272h-1.51v3c0,.767.271,1.145.8,1.145a3,3,0,0,0,.614-.059l.035,1.038a2.973,2.973,0,0,1-1.062.153c-1.086,0-1.723-.6-1.723-2.159V14.272h-.9V13.246h.9V12.113l1.345-.413v1.534h1.51v1.038" transform="translate(-582.526 -10.402)" fill="#fff"/>
    <path id="Fill-24" d="M713.757,9.715h-1.369V6.187c0-1.109-.425-1.664-1.251-1.664a1.345,1.345,0,0,0-1.369,1.463V9.7H708.4V.7h1.369V4.405h.024a2.076,2.076,0,0,1,1.853-1c1.31,0,2.112,1.015,2.112,2.631V9.715" transform="translate(-624.774 -0.7)" fill="#fff"/>
    <path id="Fill-25" d="M772.54,27.064h-4.118a1.773,1.773,0,0,0,1.947,1.829,4.641,4.641,0,0,0,1.664-.295l.212.956a5,5,0,0,1-2.065.378,2.867,2.867,0,0,1-3.08-3.115,3.017,3.017,0,0,1,2.926-3.316c1.569,0,2.572,1.168,2.572,2.938a2.391,2.391,0,0,1-.059.625Zm-1.251-.979c0-.956-.484-1.628-1.357-1.628a1.619,1.619,0,0,0-1.5,1.628Z" transform="translate(-676.547 -20.81)" fill="#fff"/>
  </g>
</svg>
