<svg xmlns="http://www.w3.org/2000/svg" width="66.143" height="53.983" viewBox="0 0 66.143 53.983">
  <g id="_076-email" data-name="076-email" transform="translate(0 -0.008)">
    <path id="Shape" d="M57.391,53.983H8.752A8.762,8.762,0,0,1,0,45.231V8.752A8.762,8.762,0,0,1,8.752,0h48.64a8.762,8.762,0,0,1,8.752,8.752v36.48A8.762,8.762,0,0,1,57.391,53.983ZM8.752,5.343A3.412,3.412,0,0,0,5.343,8.752v36.48A3.412,3.412,0,0,0,8.752,48.64h48.64A3.412,3.412,0,0,0,60.8,45.231V8.752a3.412,3.412,0,0,0-3.408-3.408Z" transform="translate(0 0.008)" fill="#ff6413"/>
    <path id="Path" d="M65.66,1.14A2.672,2.672,0,0,0,61.939.483L33.072,20.69,4.2.483A2.672,2.672,0,0,0,1.14,4.861l30.4,21.28a2.672,2.672,0,0,0,3.064,0L65,4.861A2.672,2.672,0,0,0,65.66,1.14Z" transform="translate(0 6.088)" fill="#ff6413"/>
  </g>
</svg>
