<svg id="Group_6372" data-name="Group 6372" xmlns="http://www.w3.org/2000/svg" width="180.274" height="59" viewBox="0 0 180.274 59">
  <path id="Path_2968" data-name="Path 2968" d="M183.134,51.84a7.971,7.971,0,0,1-7.967,7.974H10.829A7.972,7.972,0,0,1,2.86,51.84V8.787A7.972,7.972,0,0,1,10.829.814H175.166a7.971,7.971,0,0,1,7.967,7.973V51.84Z" transform="translate(-2.86 -0.814)" fill="#03a092"/>
  <path id="Path_2976" data-name="Path 2976" d="M488.774,422.476l-8.129-4.7-15.679-9.058c-.871-.5-1.738-.2-1.738.853v36.9c0,.788.62,1.127,1.376.691l16.041-9.267,8.128-4.7,7.814-4.513c.917-.53.829-1.256.055-1.673S488.774,422.476,488.774,422.476Z" transform="translate(-449.707 -396.506)" fill="#fff"/>
  <g id="Group_6373" data-name="Group 6373" transform="translate(54.706 21.139)">
    <path id="Path_2977" data-name="Path 2977" d="M1951.019,756.1a5.024,5.024,0,0,1-2.071-.419,3.9,3.9,0,0,1-1.574-1.288h-.127a15.671,15.671,0,0,1,.127,1.929V761.1h-1.758V744.267h1.43l.243,1.59h.085a4.089,4.089,0,0,1,1.579-1.378,4.8,4.8,0,0,1,2.066-.424,4.292,4.292,0,0,1,3.566,1.58,8.418,8.418,0,0,1-.021,8.879A4.3,4.3,0,0,1,1951.019,756.1Zm-.254-10.549a3.117,3.117,0,0,0-2.575.986,5.078,5.078,0,0,0-.816,3.138v.392a5.817,5.817,0,0,0,.816,3.5,3.1,3.1,0,0,0,2.617,1.054,2.722,2.722,0,0,0,2.359-1.219,5.787,5.787,0,0,0,.853-3.361,5.571,5.571,0,0,0-.853-3.334A2.805,2.805,0,0,0,1950.765,745.55Zm9.149,10.336h-1.759v-16.5h1.759Zm10.113,0-.35-1.654h-.085a4.87,4.87,0,0,1-1.733,1.479,5.267,5.267,0,0,1-2.156.387,3.879,3.879,0,0,1-2.708-.89,3.246,3.246,0,0,1-.98-2.534q0-3.519,5.627-3.69l1.971-.064V748.2a2.944,2.944,0,0,0-.589-2.02,2.416,2.416,0,0,0-1.881-.652,7.661,7.661,0,0,0-3.285.89l-.541-1.346a8.264,8.264,0,0,1,1.881-.731,8.143,8.143,0,0,1,2.051-.265,4.424,4.424,0,0,1,3.078.922,3.853,3.853,0,0,1,1,2.958v7.93h-1.3Zm-3.974-1.24a3.571,3.571,0,0,0,2.58-.9,3.337,3.337,0,0,0,.938-2.524v-1.049l-1.76.074a6.4,6.4,0,0,0-3.025.653,1.966,1.966,0,0,0-.927,1.8,1.809,1.809,0,0,0,.578,1.452A2.4,2.4,0,0,0,1966.053,754.647Zm6.3-10.38h1.886l2.543,6.626a25.311,25.311,0,0,1,1.039,3.276h.084q.138-.542.578-1.851t2.877-8.052h1.887l-4.991,13.231a6.6,6.6,0,0,1-1.733,2.784,3.684,3.684,0,0,1-2.431.821,7.094,7.094,0,0,1-1.59-.18v-1.41a6.14,6.14,0,0,0,1.3.127,2.687,2.687,0,0,0,2.586-2.036l.646-1.654Zm-53.916,1.08a3.96,3.96,0,0,1-.316,6.732,1.711,1.711,0,0,0-.68,1.192,1.333,1.333,0,0,0,.632,1.045l.875.679c1.069.9,2.039,1.726,2.039,3.4,0,2.284-2.211,4.592-6.388,4.592-3.523,0-5.222-1.676-5.222-3.476a3.5,3.5,0,0,1,1.87-2.965,10.468,10.468,0,0,1,4.639-1.118,2.544,2.544,0,0,1-.729-1.651,2.2,2.2,0,0,1,.243-.949c-.268.025-.535.049-.778.049a3.841,3.841,0,0,1-4.031-3.815,4.372,4.372,0,0,1,1.554-3.257,6.622,6.622,0,0,1,4.35-1.337h5l-1.555.875h-1.505Zm-1.725,10.791a3.776,3.776,0,0,0-.558-.025,9.715,9.715,0,0,0-2.551.391,2.729,2.729,0,0,0-2.089,2.5c0,1.725,1.677,2.966,4.276,2.966,2.331,0,3.571-1.12,3.571-2.626C1919.359,758.1,1918.557,757.451,1916.71,756.138Zm.7-4.618a2.459,2.459,0,0,0,.606-1.774c0-1.75-1.044-4.471-3.06-4.471a2.269,2.269,0,0,0-1.7.8,2.81,2.81,0,0,0-.535,1.8c0,1.628.947,4.326,3.037,4.326A2.486,2.486,0,0,0,1917.415,751.52Zm-14.272,4.229a5.724,5.724,0,0,1-5.917-5.727,6.011,6.011,0,0,1,6.282-5.9,5.671,5.671,0,0,1,5.795,5.726A5.927,5.927,0,0,1,1903.143,755.749Zm3.031-1.965a4.39,4.39,0,0,0,.729-2.694c0-2.136-1.019-6.212-4.026-6.212a3.376,3.376,0,0,0-2.182.827,3.672,3.672,0,0,0-1.116,2.961c0,2.4,1.188,6.354,4.124,6.354A3.1,3.1,0,0,0,1906.174,753.784ZM1890,755.749a5.725,5.725,0,0,1-5.918-5.727,6.011,6.011,0,0,1,6.282-5.9,5.671,5.671,0,0,1,5.8,5.726A5.927,5.927,0,0,1,1890,755.749Zm3.032-1.965a4.4,4.4,0,0,0,.728-2.694c0-2.136-1.019-6.212-4.027-6.212a3.375,3.375,0,0,0-2.182.827,3.671,3.671,0,0,0-1.116,2.961c0,2.4,1.188,6.354,4.124,6.354A3.1,3.1,0,0,0,1893.03,753.784Zm-10.8,1.585-3.487.805a25.824,25.824,0,0,1-4.023.414c-6.73,0-9.29-4.952-9.29-8.831,0-4.732,3.632-9.122,9.851-9.122a14.044,14.044,0,0,1,3.73.512,9.514,9.514,0,0,1,3.219,1.512l-2.024,1.927-.853.194.609-.976a6.968,6.968,0,0,0-5.218-2.292c-3.853,0-6.755,2.929-6.755,7.2a8.625,8.625,0,0,0,8.631,8.9,7.257,7.257,0,0,0,3.1-.61v-3.927l-3.681.2,1.95-1.05h5.169l-.633.61a.57.57,0,0,0-.244.39c-.025.22-.048.928-.048,1.172v2.977h0Z" transform="translate(-1865.428 -738.091)" fill="#fff"/>
    <path id="Path_2978" data-name="Path 2978" d="M3761.4,736.729c-.8-.073-.973-.219-.973-1.171V721.751c0-.053.008-.107.013-.157.1-.853.342-1,1.1-1.439h-3.488l-1.829.878h1.864V736.1c0,.487-.1.561-.658,1.292h4.316l.9-.535C3762.23,736.8,3761.815,736.778,3761.4,736.729Zm9.922.224c-.265.146-.532.316-.8.436a5.64,5.64,0,0,1-2.351.461,5.173,5.173,0,0,1-3.221-.945,6.272,6.272,0,0,1-2.469-5.112,5.489,5.489,0,0,1,5.545-5.6,4.7,4.7,0,0,1,2.5.679,4.011,4.011,0,0,1,1.693,2.4l-5.689,2.3-1.865.145c.6,3.077,2.687,4.868,4.988,4.868a6.252,6.252,0,0,0,2.954-.846Zm-2.275-7.221c.459-.169.7-.315.7-.654a2.4,2.4,0,0,0-2.4-2.083c-.97,0-2.785.751-2.785,3.367,0,.412.049.848.074,1.285Zm4.613-3.37v1.6h-.194v-1.6h-.529V726.2h1.251v.166Zm2.178,1.6v-1.613h-.009l-.492,1.613h-.152l-.5-1.613h-.006v1.613h-.177V726.2h.3l.449,1.426h.007l.442-1.426h.306v1.764Z" transform="translate(-3700.686 -720.154)" fill="#fff"/>
  </g>
  <path id="Path_2979" data-name="Path 2979" d="M1871.645,410.342h-1.212a8.006,8.006,0,0,0-.345-1.417h-1.749a7.319,7.319,0,0,0-.356,1.417h-1.14q0-.148.884-2.424a19.01,19.01,0,0,0,.884-2.508h1.431a20.887,20.887,0,0,0,.8,2.472A21.741,21.741,0,0,1,1871.645,410.342ZM1869.9,408.2a21.291,21.291,0,0,1-.648-2.114h-.061q0,.148-.67,2.114Zm6.631,2.141h-.935a9.246,9.246,0,0,0-1.041-1.64,9.035,9.035,0,0,1-1.242-2.14h-.061a13.317,13.317,0,0,1,.095,1.5q0,.936.053,2.281h-.932q.057-1.174.057-2.58,0-1.383-.057-2.352h1.124a7.115,7.115,0,0,0,.935,1.6,9.419,9.419,0,0,1,1.143,2.019h.057a14.321,14.321,0,0,1-.091-1.515q0-1.026-.053-2.106h.947q-.053.939-.053,2.352T1876.527,410.342Zm5.487-2.637a2.8,2.8,0,0,1-.689,1.879,2.407,2.407,0,0,1-1.931.8q-.56,0-1.545-.046.049-1.144.049-2.579,0-1.378-.049-2.353h.663q.163,0,.485-.011c.214-.007.354-.011.42-.011a2.552,2.552,0,0,1,1.982.682A2.358,2.358,0,0,1,1882.015,407.706Zm-1.033.163a1.827,1.827,0,0,0-.424-1.226,1.608,1.608,0,0,0-1.295-.5,3.943,3.943,0,0,0-.447.034q.038.758.038,1.583,0,.906.038,1.8a2.5,2.5,0,0,0,.492.049,1.43,1.43,0,0,0,1.206-.506A1.953,1.953,0,0,0,1880.981,407.869Zm6.094,2.474h-1.121a7.446,7.446,0,0,0-.674-1.655.882.882,0,0,0-.757-.315q-.22,0-.42,0,0,.974.034,1.966h-1.052q.049-1.144.049-2.58,0-1.378-.049-2.352h.655q.114,0,.475-.011t.668-.011q1.738,0,1.738,1.19a1.334,1.334,0,0,1-.992,1.315v.057a1.183,1.183,0,0,1,.67.6A13.234,13.234,0,0,1,1887.075,410.342Zm-1.42-3.485q0-.754-.969-.754a3.322,3.322,0,0,0-.628.053q.042.587.042,1.53c.139.005.256.007.352.007Q1885.655,407.695,1885.655,406.857Zm6.847.928a2.72,2.72,0,0,1-.712,1.928,2.31,2.31,0,0,1-1.76.765,2.223,2.223,0,0,1-1.673-.7,2.475,2.475,0,0,1-.674-1.786,2.72,2.72,0,0,1,.712-1.928,2.308,2.308,0,0,1,1.76-.765,2.227,2.227,0,0,1,1.673.7A2.473,2.473,0,0,1,1892.5,407.785Zm-1.045.11a1.958,1.958,0,0,0-.4-1.284,1.247,1.247,0,0,0-1-.492,1.155,1.155,0,0,0-.939.5,1.983,1.983,0,0,0-.386,1.254,1.953,1.953,0,0,0,.407,1.282,1.246,1.246,0,0,0,1,.494,1.153,1.153,0,0,0,.939-.5A1.983,1.983,0,0,0,1891.457,407.9Zm3.186,2.447h-1.072q.049-1.174.049-2.58,0-1.383-.049-2.352h1.072q-.049.955-.049,2.352Q1894.594,409.191,1894.643,410.342Zm5.488-2.637a2.8,2.8,0,0,1-.689,1.879,2.407,2.407,0,0,1-1.931.8q-.56,0-1.545-.046.049-1.144.049-2.579,0-1.378-.049-2.353h.663q.163,0,.485-.011t.42-.011a2.552,2.552,0,0,1,1.982.682A2.357,2.357,0,0,1,1900.131,407.706Zm-1.033.163a1.828,1.828,0,0,0-.424-1.226,1.609,1.609,0,0,0-1.3-.5,3.933,3.933,0,0,0-.447.034q.037.758.038,1.583,0,.906.038,1.8a2.5,2.5,0,0,0,.492.049,1.43,1.43,0,0,0,1.206-.506A1.953,1.953,0,0,0,1899.1,407.869Zm8.314,2.474H1906.2a8,8,0,0,0-.345-1.417H1904.1a7.329,7.329,0,0,0-.356,1.417h-1.139q0-.148.884-2.424a19.035,19.035,0,0,0,.884-2.508h1.431a20.953,20.953,0,0,0,.8,2.472A21.814,21.814,0,0,1,1907.411,410.342Zm-1.749-2.141a21.379,21.379,0,0,1-.648-2.114h-.061q0,.148-.67,2.114Zm6.165-1.5a1.477,1.477,0,0,1-.672,1.337,2.989,2.989,0,0,1-1.649.432c-.119,0-.2,0-.254-.007q0,.713.042,1.879h-1.064q.049-1.094.049-2.58,0-1.364-.049-2.352h.659q.14,0,.537-.011t.689-.011a2.166,2.166,0,0,1,1.215.326A1.1,1.1,0,0,1,1911.827,406.7Zm-.977.208q0-.81-1.075-.811a3.049,3.049,0,0,0-.568.057q.042.716.042,1.621c.063.005.136.007.22.007Q1910.85,407.786,1910.85,406.91Zm5.518-.208a1.477,1.477,0,0,1-.672,1.337,2.99,2.99,0,0,1-1.649.432c-.119,0-.2,0-.254-.007q0,.713.042,1.879h-1.064q.049-1.094.049-2.58,0-1.364-.049-2.352h.659q.14,0,.537-.011t.689-.011a2.166,2.166,0,0,1,1.215.326A1.1,1.1,0,0,1,1916.368,406.7Zm-.977.208q0-.81-1.075-.811a3.048,3.048,0,0,0-.568.057q.041.716.042,1.621c.063.005.136.007.22.007Q1915.392,407.786,1915.391,406.91Zm8.4.875a2.72,2.72,0,0,1-.712,1.928,2.308,2.308,0,0,1-1.76.765,2.224,2.224,0,0,1-1.673-.7,2.476,2.476,0,0,1-.674-1.786,2.72,2.72,0,0,1,.712-1.928,2.308,2.308,0,0,1,1.76-.765,2.227,2.227,0,0,1,1.673.7A2.475,2.475,0,0,1,1923.793,407.785Zm-1.045.11a1.957,1.957,0,0,0-.405-1.284,1.246,1.246,0,0,0-1-.492,1.154,1.154,0,0,0-.939.5,1.981,1.981,0,0,0-.386,1.254,1.952,1.952,0,0,0,.407,1.282,1.246,1.246,0,0,0,1,.494,1.153,1.153,0,0,0,.939-.5A1.981,1.981,0,0,0,1922.748,407.9Zm6.177,2.447h-.935a9.214,9.214,0,0,0-1.041-1.64,9.028,9.028,0,0,1-1.242-2.14h-.061a13.317,13.317,0,0,1,.095,1.5q0,.936.053,2.281h-.931q.056-1.174.057-2.58,0-1.383-.057-2.352h1.124a7.132,7.132,0,0,0,.935,1.6,9.416,9.416,0,0,1,1.143,2.019h.057a14.323,14.323,0,0,1-.091-1.515q0-1.026-.053-2.106h.947q-.053.939-.053,2.352T1928.924,410.342Z" transform="translate(-1812.097 -393.411)" fill="#fff"/>
</svg>
