<svg xmlns="http://www.w3.org/2000/svg" width="246" height="81" viewBox="0 0 246 81">
  <g id="Group_6455" data-name="Group 6455" transform="translate(-330 -6622)">
    <rect id="Rectangle_2302" data-name="Rectangle 2302" width="246" height="81" rx="5" transform="translate(330 6622)" fill="#fff"/>
    <g id="Group_6454" data-name="Group 6454" transform="translate(-6.196)">
      <path id="Path_2976" data-name="Path 2976" d="M488.783,422.481l-8.132-4.7-15.685-9.061c-.871-.5-1.739-.2-1.739.853v36.917c0,.788.62,1.128,1.377.691l16.047-9.27,8.131-4.7L496.6,428.7c.917-.53.829-1.257.055-1.674S488.783,422.481,488.783,422.481Z" transform="translate(-111.032 6234.514)" fill="#03a092"/>
      <g id="Group_6453" data-name="Group 6453" transform="translate(0 1.43)">
        <path id="Path_2977" data-name="Path 2977" d="M1982.477,762.518a6.87,6.87,0,0,1-2.833-.572,5.34,5.34,0,0,1-2.152-1.761h-.173a21.382,21.382,0,0,1,.173,2.638v6.539h-2.4V746.337h1.956l.333,2.175h.116a5.591,5.591,0,0,1,2.16-1.885,6.558,6.558,0,0,1,2.825-.58,5.869,5.869,0,0,1,4.876,2.16,11.511,11.511,0,0,1-.028,12.143A5.879,5.879,0,0,1,1982.477,762.518Zm-.348-14.426a4.262,4.262,0,0,0-3.521,1.348,6.943,6.943,0,0,0-1.116,4.292v.536q0,3.35,1.116,4.792a4.242,4.242,0,0,0,3.579,1.442,3.722,3.722,0,0,0,3.225-1.667,7.914,7.914,0,0,0,1.166-4.6,7.619,7.619,0,0,0-1.166-4.56A3.836,3.836,0,0,0,1982.129,748.092Zm12.511,14.135h-2.405V739.668h2.405Zm13.83,0-.479-2.262h-.116a6.664,6.664,0,0,1-2.37,2.023,7.207,7.207,0,0,1-2.948.53,5.3,5.3,0,0,1-3.7-1.218,4.44,4.44,0,0,1-1.34-3.465q0-4.813,7.694-5.046l2.7-.087v-.986a4.027,4.027,0,0,0-.805-2.762,3.3,3.3,0,0,0-2.572-.892,10.477,10.477,0,0,0-4.492,1.218l-.739-1.841a11.3,11.3,0,0,1,2.573-1,11.132,11.132,0,0,1,2.8-.363,6.048,6.048,0,0,1,4.21,1.261,5.269,5.269,0,0,1,1.369,4.046v10.844h-1.782Zm-5.434-1.7a4.884,4.884,0,0,0,3.528-1.232,4.564,4.564,0,0,0,1.282-3.451v-1.435l-2.406.1a8.748,8.748,0,0,0-4.137.893,2.689,2.689,0,0,0-1.268,2.458,2.475,2.475,0,0,0,.79,1.985A3.275,3.275,0,0,0,2003.036,760.532Zm8.613-14.194h2.579l3.478,9.062a34.612,34.612,0,0,1,1.421,4.481h.116q.189-.741.789-2.531t3.934-11.011h2.581l-6.826,18.094a9.027,9.027,0,0,1-2.37,3.807,5.037,5.037,0,0,1-3.324,1.122,9.707,9.707,0,0,1-2.175-.246v-1.928a8.4,8.4,0,0,0,1.783.174q2.479,0,3.536-2.784l.883-2.261Zm-73.731,1.477a5.6,5.6,0,0,1,2.358,4.488c0,2.458-1.4,3.624-2.791,4.719a2.339,2.339,0,0,0-.93,1.63,1.823,1.823,0,0,0,.865,1.428l1.2.929c1.461,1.23,2.789,2.361,2.789,4.655,0,3.124-3.023,6.28-8.736,6.28-4.818,0-7.142-2.293-7.142-4.753a4.783,4.783,0,0,1,2.558-4.055c2.058-1.263,4.85-1.427,6.344-1.53a3.479,3.479,0,0,1-1-2.258,3,3,0,0,1,.332-1.3c-.367.034-.732.067-1.064.067a5.253,5.253,0,0,1-5.513-5.217,5.979,5.979,0,0,1,2.125-4.453,9.055,9.055,0,0,1,5.948-1.829h6.842l-2.126,1.2h-2.059Zm-2.359,14.758a5.151,5.151,0,0,0-.763-.035,13.283,13.283,0,0,0-3.489.534c-.731.264-2.857,1.061-2.857,3.422s2.293,4.056,5.848,4.056c3.187,0,4.883-1.532,4.883-3.591C1939.18,765.26,1938.084,764.367,1935.558,762.572Zm.964-6.316a3.363,3.363,0,0,0,.828-2.427c0-2.392-1.428-6.115-4.184-6.115a3.1,3.1,0,0,0-2.326,1.1,3.841,3.841,0,0,0-.732,2.459c0,2.227,1.3,5.916,4.154,5.916A3.4,3.4,0,0,0,1936.522,756.256ZM1917,762.04a7.828,7.828,0,0,1-8.092-7.832c0-4.347,3.548-8.062,8.591-8.062a7.755,7.755,0,0,1,7.924,7.831A8.1,8.1,0,0,1,1917,762.04Zm4.145-2.688a6.005,6.005,0,0,0,1-3.685c0-2.921-1.393-8.495-5.506-8.495a4.616,4.616,0,0,0-2.984,1.13,5.021,5.021,0,0,0-1.527,4.049c0,3.283,1.625,8.69,5.639,8.69A4.236,4.236,0,0,0,1921.149,759.352Zm-22.121,2.688a7.829,7.829,0,0,1-8.093-7.832c0-4.347,3.549-8.062,8.591-8.062a7.755,7.755,0,0,1,7.925,7.831A8.105,8.105,0,0,1,1899.028,762.04Zm4.146-2.688a6.013,6.013,0,0,0,1-3.685c0-2.921-1.394-8.495-5.507-8.495a4.615,4.615,0,0,0-2.984,1.13,5.02,5.02,0,0,0-1.526,4.049c0,3.283,1.624,8.69,5.639,8.69A4.239,4.239,0,0,0,1903.174,759.352Zm-14.773,2.167-4.769,1.1a35.321,35.321,0,0,1-5.5.566c-9.2,0-12.7-6.773-12.7-12.077,0-6.471,4.967-12.475,13.471-12.475a19.2,19.2,0,0,1,5.1.7,13.006,13.006,0,0,1,4.4,2.068l-2.769,2.635-1.166.266.833-1.335a9.53,9.53,0,0,0-7.135-3.135c-5.269,0-9.238,4-9.238,9.843,0,6.27,4.536,12.175,11.8,12.175a9.925,9.925,0,0,0,4.235-.834v-5.37l-5.034.267,2.666-1.436h7.069l-.866.834a.779.779,0,0,0-.334.533c-.035.3-.066,1.269-.066,1.6v4.072h0Z" transform="translate(-1460.911 5912.332)" fill="#03a092"/>
        <path id="Path_2978" data-name="Path 2978" d="M3763.3,742.821c-1.1-.1-1.332-.3-1.332-1.6V722.338c.007-.072.011-.146.018-.215.135-1.167.468-1.367,1.5-1.969h-4.77l-2.5,1.2h2.55v.015l0-.012v20.6c0,.666-.131.767-.9,1.767h5.9l1.234-.732C3764.439,742.92,3763.871,742.888,3763.3,742.821Zm13.568.307c-.363.2-.728.432-1.09.6a7.716,7.716,0,0,1-3.216.63,7.073,7.073,0,0,1-4.4-1.293,8.578,8.578,0,0,1-3.376-6.991,7.507,7.507,0,0,1,7.583-7.652,6.432,6.432,0,0,1,3.413.928,5.485,5.485,0,0,1,2.315,3.278l-7.78,3.149-2.55.2c.827,4.208,3.674,6.657,6.822,6.657a8.553,8.553,0,0,0,4.04-1.157Zm-3.112-9.874c.628-.231.959-.431.959-.894a3.287,3.287,0,0,0-3.279-2.849c-1.326,0-3.808,1.028-3.808,4.6,0,.563.066,1.159.1,1.758Zm6.308-4.609v2.186h-.265v-2.186h-.723v-.227h1.711v.227Zm2.979,2.186v-2.206h-.012l-.673,2.206h-.208l-.678-2.206h-.009v2.206h-.241v-2.413h.413l.614,1.95h.009l.6-1.95h.419v2.413Z" transform="translate(-3275.758 5930.07)" fill="#03a092"/>
        <path id="Path_2979" data-name="Path 2979" d="M1873.41,412.2h-1.657a10.95,10.95,0,0,0-.471-1.938h-2.392a10.021,10.021,0,0,0-.487,1.938h-1.558q0-.2,1.209-3.315a26.051,26.051,0,0,0,1.209-3.429h1.958a28.523,28.523,0,0,0,1.1,3.38A29.672,29.672,0,0,1,1873.41,412.2Zm-2.392-2.927a29.125,29.125,0,0,1-.885-2.891h-.083q0,.2-.916,2.891Zm9.069,2.927h-1.279a12.638,12.638,0,0,0-1.424-2.243,12.356,12.356,0,0,1-1.7-2.927h-.083a18.222,18.222,0,0,1,.13,2.051q0,1.28.073,3.119h-1.274q.077-1.606.078-3.528,0-1.891-.078-3.217h1.537a9.734,9.734,0,0,0,1.279,2.191,12.889,12.889,0,0,1,1.564,2.761h.078a19.556,19.556,0,0,1-.124-2.072q0-1.4-.072-2.88h1.295q-.073,1.285-.072,3.217T1880.086,412.2Zm7.5-3.606a3.822,3.822,0,0,1-.943,2.569,3.29,3.29,0,0,1-2.641,1.1q-.766,0-2.113-.062.067-1.565.068-3.528,0-1.885-.068-3.217h.906q.223,0,.663-.015t.575-.015a3.49,3.49,0,0,1,2.711.933A3.224,3.224,0,0,1,1887.591,408.591Zm-1.413.223a2.5,2.5,0,0,0-.58-1.676,2.2,2.2,0,0,0-1.771-.681,5.4,5.4,0,0,0-.611.047q.051,1.036.052,2.165,0,1.238.052,2.456a3.426,3.426,0,0,0,.673.068,1.955,1.955,0,0,0,1.649-.692A2.67,2.67,0,0,0,1886.177,408.814Zm8.333,3.383h-1.533a10.171,10.171,0,0,0-.922-2.264,1.206,1.206,0,0,0-1.035-.43q-.3,0-.575.005,0,1.332.047,2.689h-1.439q.067-1.565.067-3.528,0-1.885-.067-3.217h.9q.156,0,.65-.015t.914-.015q2.376,0,2.377,1.627a1.824,1.824,0,0,1-1.356,1.8v.078a1.617,1.617,0,0,1,.916.815A18.053,18.053,0,0,1,1894.51,412.2Zm-1.942-4.766q0-1.031-1.325-1.031a4.54,4.54,0,0,0-.859.072q.057.8.057,2.093c.19.007.35.01.482.01Q1892.569,408.576,1892.569,407.431Zm9.363,1.269a3.72,3.72,0,0,1-.974,2.637,3.159,3.159,0,0,1-2.408,1.047,3.041,3.041,0,0,1-2.289-.961,3.384,3.384,0,0,1-.922-2.442,3.72,3.72,0,0,1,.974-2.637,3.156,3.156,0,0,1,2.408-1.047,3.046,3.046,0,0,1,2.288.958A3.382,3.382,0,0,1,1901.932,408.7Zm-1.428.15a2.676,2.676,0,0,0-.554-1.756,1.706,1.706,0,0,0-1.367-.673,1.578,1.578,0,0,0-1.284.679,2.709,2.709,0,0,0-.529,1.715,2.669,2.669,0,0,0,.557,1.753,1.7,1.7,0,0,0,1.365.676,1.577,1.577,0,0,0,1.284-.681A2.713,2.713,0,0,0,1900.5,408.85Zm4.356,3.347h-1.465q.067-1.606.068-3.528,0-1.891-.068-3.217h1.465q-.067,1.306-.068,3.217Q1904.792,410.622,1904.86,412.2Zm7.5-3.606a3.824,3.824,0,0,1-.942,2.569,3.291,3.291,0,0,1-2.641,1.1q-.766,0-2.113-.062.067-1.565.068-3.528,0-1.885-.068-3.217h.906q.223,0,.663-.015t.575-.015a3.49,3.49,0,0,1,2.711.933A3.224,3.224,0,0,1,1912.365,408.591Zm-1.413.223a2.5,2.5,0,0,0-.58-1.676,2.2,2.2,0,0,0-1.771-.681,5.4,5.4,0,0,0-.611.047q.051,1.036.052,2.165,0,1.238.052,2.456a3.426,3.426,0,0,0,.673.068,1.954,1.954,0,0,0,1.649-.692A2.67,2.67,0,0,0,1910.951,408.814Zm11.369,3.383h-1.657a10.918,10.918,0,0,0-.472-1.938H1917.8a10.03,10.03,0,0,0-.487,1.938h-1.558q0-.2,1.209-3.315a26.051,26.051,0,0,0,1.209-3.429h1.957a28.689,28.689,0,0,0,1.1,3.38A29.828,29.828,0,0,1,1922.321,412.2Zm-2.392-2.927a29.237,29.237,0,0,1-.886-2.891h-.083q0,.2-.916,2.891Zm8.432-2.051a2.019,2.019,0,0,1-.919,1.829,4.086,4.086,0,0,1-2.255.591c-.162,0-.277,0-.347-.01q0,.974.057,2.569h-1.455q.067-1.5.068-3.528,0-1.865-.068-3.217h.9q.192,0,.735-.015c.363-.01.676-.015.942-.015a2.962,2.962,0,0,1,1.662.446A1.506,1.506,0,0,1,1928.36,407.218Zm-1.335.285q0-1.108-1.471-1.109a4.171,4.171,0,0,0-.776.078q.057.979.057,2.217c.086.007.186.01.3.01Q1927.024,408.7,1927.024,407.5Zm7.545-.285a2.02,2.02,0,0,1-.919,1.829,4.089,4.089,0,0,1-2.255.591c-.162,0-.277,0-.347-.01q0,.974.057,2.569h-1.455q.067-1.5.067-3.528,0-1.865-.067-3.217h.9q.192,0,.735-.015t.942-.015a2.962,2.962,0,0,1,1.662.446A1.507,1.507,0,0,1,1934.57,407.218Zm-1.335.285q0-1.108-1.47-1.109a4.17,4.17,0,0,0-.776.078q.057.979.057,2.217c.086.007.186.01.3.01Q1933.234,408.7,1933.234,407.5Zm11.489,1.2a3.719,3.719,0,0,1-.974,2.637,3.156,3.156,0,0,1-2.407,1.047,3.041,3.041,0,0,1-2.289-.961,3.386,3.386,0,0,1-.922-2.442,3.72,3.72,0,0,1,.974-2.637,3.157,3.157,0,0,1,2.408-1.047,3.045,3.045,0,0,1,2.289.958A3.384,3.384,0,0,1,1944.723,408.7Zm-1.429.15a2.676,2.676,0,0,0-.554-1.756,1.7,1.7,0,0,0-1.367-.673,1.579,1.579,0,0,0-1.284.679,2.709,2.709,0,0,0-.528,1.715,2.668,2.668,0,0,0,.557,1.753,1.7,1.7,0,0,0,1.364.676,1.577,1.577,0,0,0,1.284-.681A2.71,2.71,0,0,0,1943.294,408.85Zm8.447,3.347h-1.279a12.618,12.618,0,0,0-1.424-2.243,12.36,12.36,0,0,1-1.7-2.927h-.083a18.279,18.279,0,0,1,.13,2.051q0,1.28.072,3.119h-1.274q.077-1.606.077-3.528,0-1.891-.077-3.217h1.537a9.751,9.751,0,0,0,1.279,2.191,12.884,12.884,0,0,1,1.564,2.761h.078a19.562,19.562,0,0,1-.124-2.072q0-1.4-.072-2.88h1.295q-.073,1.285-.072,3.217T1951.741,412.2Z" transform="translate(-1462.27 6232.273)" fill="#03a092"/>
      </g>
    </g>
  </g>
</svg>
