<svg xmlns="http://www.w3.org/2000/svg" width="72.495" height="63.986" viewBox="0 0 72.495 63.986">
  <g id="_087-heart" data-name="087-heart" transform="translate(0 -0.007)">
    <path id="Path" d="M.071.071h0Z" transform="translate(66.438 5.931)"/>
    <path id="Shape" d="M36.252,63.986a2.906,2.906,0,0,1-2.071-.858L5.995,34.943A20.47,20.47,0,0,1,34.943,5.995L36.252,7.3l1.309-1.31,0,0A20.463,20.463,0,0,1,66.508,6l.012.011a20.493,20.493,0,0,1-.012,28.938L38.323,63.129A2.906,2.906,0,0,1,36.252,63.986ZM20.469,5.864A14.607,14.607,0,0,0,10.138,30.8L36.252,56.916,62.366,30.8a14.626,14.626,0,0,0,.005-20.659l-.012-.012a14.623,14.623,0,0,0-20.652,0l0,0-3.38,3.38a2.928,2.928,0,0,1-4.142,0l-3.38-3.38A14.513,14.513,0,0,0,20.469,5.864Z" transform="translate(0 0.007)" fill="#ff6413"/>
  </g>
</svg>
