<svg xmlns="http://www.w3.org/2000/svg" width="120.217" height="113.881" viewBox="0 0 120.217 113.881">
  <g id="Group_6383" data-name="Group 6383" transform="translate(0 0)">
    <g id="Group_5136" data-name="Group 5136" transform="translate(0 0)">
      <g id="Group_5135" data-name="Group 5135">
        <path id="Path" d="M2.917,69.179A9.453,9.453,0,0,1,2,65.1V58.777A9.494,9.494,0,0,1,8.409,49.8C9.968,24.737,33.493,5,62.1,5A60.391,60.391,0,0,1,78.6,7.273a3.163,3.163,0,1,1-1.728,6.086A54.065,54.065,0,0,0,62.1,11.327c-25.056,0-45.448,16.811-47.312,37.96h97.926a9.49,9.49,0,0,1,9.49,9.49V65.1a9.453,9.453,0,0,1-.914,4.069,3.219,3.219,0,0,1,0,4.512,9.453,9.453,0,0,1,.916,4.072v6.327a9.494,9.494,0,0,1-6.552,9.026c-2.512,14.942-25.726,25.771-53.553,25.771S11.063,108.053,8.552,93.111A9.494,9.494,0,0,1,2,84.084V77.757a9.453,9.453,0,0,1,.918-4.078A3.219,3.219,0,0,1,2.917,69.179ZM78.633,92.855l-12.67,5.631a9.49,9.49,0,0,1-7.709,0L45.2,92.685a3.153,3.153,0,0,1-2.2.889H15.171c3.381,10.308,22.925,18.98,46.933,18.98s43.552-8.672,46.933-18.98h-28.4A3.151,3.151,0,0,1,78.633,92.855ZM91.25,87.248h21.468a3.163,3.163,0,0,0,3.163-3.163V77.757a3.152,3.152,0,0,0-.291-1.328ZM8.62,76.427a3.151,3.151,0,0,0-.293,1.331v6.327a3.163,3.163,0,0,0,3.163,3.163H32.967L8.62,76.427Zm2.871-8.159H112.719a3.163,3.163,0,0,0,3.163-3.163V58.777a3.163,3.163,0,0,0-3.163-3.163H11.49a3.163,3.163,0,0,0-3.163,3.163V65.1A3.163,3.163,0,0,0,11.49,68.267ZM60.824,92.705a3.163,3.163,0,0,0,2.57,0l40.75-18.111H20.074Z" transform="translate(-2 -5)" fill="#fff"/>
        <path id="Path-2" data-name="Path" d="M121.3,69.179a9.453,9.453,0,0,0,.917-4.075V58.777a9.494,9.494,0,0,0-6.409-8.979C114.248,24.737,90.724,5,62.113,5a60.39,60.39,0,0,0-16.5,2.273,3.163,3.163,0,1,0,1.728,6.086,54.064,54.064,0,0,1,14.77-2.033c25.056,0,45.448,16.811,47.312,37.96H11.5a9.49,9.49,0,0,0-9.49,9.49V65.1a9.453,9.453,0,0,0,.914,4.069,3.219,3.219,0,0,0,0,4.512,9.453,9.453,0,0,0-.916,4.072v6.327A9.494,9.494,0,0,0,8.56,93.111c2.511,14.942,25.726,25.771,53.552,25.771s51.041-10.828,53.552-25.771a9.494,9.494,0,0,0,6.552-9.026V77.757a9.453,9.453,0,0,0-.918-4.078A3.219,3.219,0,0,0,121.3,69.179ZM45.584,92.855l12.67,5.631a9.49,9.49,0,0,0,7.709,0l13.053-5.8a3.153,3.153,0,0,0,2.2.889h27.831c-3.381,10.308-22.925,18.98-46.933,18.98s-43.552-8.672-46.933-18.98h28.4A3.15,3.15,0,0,0,45.584,92.855ZM32.967,87.248H11.5a3.163,3.163,0,0,1-3.163-3.163V77.757a3.152,3.152,0,0,1,.291-1.328ZM115.6,76.427a3.152,3.152,0,0,1,.293,1.331v6.327a3.163,3.163,0,0,1-3.163,3.163H91.25L115.6,76.427Zm-2.871-8.159H11.5A3.163,3.163,0,0,1,8.335,65.1V58.777A3.163,3.163,0,0,1,11.5,55.614H112.726a3.163,3.163,0,0,1,3.163,3.163V65.1A3.163,3.163,0,0,1,112.726,68.267ZM63.393,92.705a3.163,3.163,0,0,1-2.57,0L20.074,74.594h84.068Z" transform="translate(-2 -5)" fill="#fff"/>
      </g>
    </g>
  </g>
</svg>
