<svg xmlns="http://www.w3.org/2000/svg" width="103" height="104" viewBox="0 0 103 104">
  <g id="Group_6333" data-name="Group 6333" transform="translate(-0.174 0.347)">
    <path id="Rectangle_2135" data-name="Rectangle 2135" d="M9.656,0H51.5A51.5,51.5,0,0,1,103,51.5v1A51.5,51.5,0,0,1,51.5,104h0A51.5,51.5,0,0,1,0,52.5V9.656A9.656,9.656,0,0,1,9.656,0Z" transform="translate(0.175 -0.347)" fill="#fff"/>
    <g id="Group_6332" data-name="Group 6332" transform="translate(28.398 34.483)">
      <path id="Subtraction_49" data-name="Subtraction 49" d="M32,30H0V11A11,11,0,0,1,11,0H32A11,11,0,0,1,43,11v8A11,11,0,0,1,32,30ZM8.285,17.143a2.143,2.143,0,0,0,0,4.286H25.5a2.143,2.143,0,1,0,0-4.286Zm0-7.143a2.143,2.143,0,1,0,0,4.286H33.179a2.143,2.143,0,0,0,0-4.286Z" transform="translate(-0.224 0.17)" fill="#199686"/>
    </g>
  </g>
</svg>
