<svg xmlns="http://www.w3.org/2000/svg" xmlns:xlink="http://www.w3.org/1999/xlink" width="650.466" height="395" viewBox="0 0 650.466 395">
  <defs>
    <filter id="Rectangle_2021" x="166.318" y="101.083" width="484.148" height="205.899" filterUnits="userSpaceOnUse">
      <feOffset dy="3" input="SourceAlpha"/>
      <feGaussianBlur stdDeviation="3" result="blur"/>
      <feFlood flood-opacity="0.161"/>
      <feComposite operator="in" in2="blur"/>
      <feComposite in="SourceGraphic"/>
    </filter>
    <filter id="Rectangle_2022" x="0" y="66.264" width="595.163" height="114.054" filterUnits="userSpaceOnUse">
      <feOffset dy="3" input="SourceAlpha"/>
      <feGaussianBlur stdDeviation="3" result="blur-2"/>
      <feFlood flood-opacity="0.161"/>
      <feComposite operator="in" in2="blur-2"/>
      <feComposite in="SourceGraphic"/>
    </filter>
    <filter id="Rectangle_2023" x="77.4" y="0" width="267.742" height="114.054" filterUnits="userSpaceOnUse">
      <feOffset dy="3" input="SourceAlpha"/>
      <feGaussianBlur stdDeviation="3" result="blur-3"/>
      <feFlood flood-opacity="0.161"/>
      <feComposite operator="in" in2="blur-3"/>
      <feComposite in="SourceGraphic"/>
    </filter>
    <filter id="Rectangle_2024" x="340.589" y="3.062" width="160.607" height="72.848" filterUnits="userSpaceOnUse">
      <feOffset dy="3" input="SourceAlpha"/>
      <feGaussianBlur stdDeviation="3" result="blur-4"/>
      <feFlood flood-opacity="0.161"/>
      <feComposite operator="in" in2="blur-4"/>
      <feComposite in="SourceGraphic"/>
    </filter>
    <filter id="Rectangle_2025" x="2.228" y="233.037" width="595.163" height="114.054" filterUnits="userSpaceOnUse">
      <feOffset dy="3" input="SourceAlpha"/>
      <feGaussianBlur stdDeviation="3" result="blur-5"/>
      <feFlood flood-opacity="0.161"/>
      <feComposite operator="in" in2="blur-5"/>
      <feComposite in="SourceGraphic"/>
    </filter>
    <filter id="Rectangle_2038" x="45.432" y="361.688" width="520.825" height="33.313" filterUnits="userSpaceOnUse">
      <feOffset dy="3" input="SourceAlpha"/>
      <feGaussianBlur stdDeviation="3" result="blur-6"/>
      <feFlood flood-opacity="0.161"/>
      <feComposite operator="in" in2="blur-6"/>
      <feComposite in="SourceGraphic"/>
    </filter>
  </defs>
  <g id="_02" data-name="02" transform="translate(-60.222 -62.88)">
    <g transform="matrix(1, 0, 0, 1, 60.22, 62.88)" filter="url(#Rectangle_2021)">
      <rect id="Rectangle_2021-2" data-name="Rectangle 2021" width="466.148" height="187.899" rx="93.95" transform="translate(175.32 107.08)" fill="#f5f2ff"/>
    </g>
    <g transform="matrix(1, 0, 0, 1, 60.22, 62.88)" filter="url(#Rectangle_2022)">
      <rect id="Rectangle_2022-2" data-name="Rectangle 2022" width="577.163" height="96.054" rx="48.027" transform="translate(9 72.26)" fill="#f5f2ff"/>
    </g>
    <g transform="matrix(1, 0, 0, 1, 60.22, 62.88)" filter="url(#Rectangle_2023)">
      <rect id="Rectangle_2023-2" data-name="Rectangle 2023" width="249.742" height="96.054" rx="48.027" transform="translate(86.4 6)" fill="#f5f2ff"/>
    </g>
    <g transform="matrix(1, 0, 0, 1, 60.22, 62.88)" filter="url(#Rectangle_2024)">
      <rect id="Rectangle_2024-2" data-name="Rectangle 2024" width="142.607" height="54.848" rx="27.424" transform="translate(349.59 9.06)" fill="#f5f2ff"/>
    </g>
    <g transform="matrix(1, 0, 0, 1, 60.22, 62.88)" filter="url(#Rectangle_2025)">
      <rect id="Rectangle_2025-2" data-name="Rectangle 2025" width="577.163" height="96.054" rx="48.027" transform="translate(11.23 239.04)" fill="#f5f2ff"/>
    </g>
    <line id="Line_8" data-name="Line 8" x1="394.472" transform="translate(257.936 228.136)" fill="none" stroke="#fff" stroke-linecap="round" stroke-linejoin="round" stroke-width="10.17"/>
    <line id="Line_9" data-name="Line 9" x1="394.472" transform="translate(224.526 345.071)" fill="none" stroke="#fff" stroke-linecap="round" stroke-linejoin="round" stroke-width="10.17"/>
    <line id="Line_10" data-name="Line 10" x1="209.648" transform="translate(167.125 133.752)" fill="none" stroke="#fff" stroke-linecap="round" stroke-linejoin="round" stroke-width="10.17"/>
    <line id="Line_11" data-name="Line 11" y2="46.775" transform="translate(263.179 77.789)" fill="none" stroke="#fff" stroke-linecap="round" stroke-linejoin="round" stroke-width="10.17"/>
    <line id="Line_12" data-name="Line 12" y2="46.775" transform="translate(149.584 147.115)" fill="none" stroke="#fff" stroke-linecap="round" stroke-linejoin="round" stroke-width="10.17"/>
    <line id="Line_13" data-name="Line 13" y2="78.515" transform="translate(390.972 142.104)" fill="none" stroke="#fff" stroke-linecap="round" stroke-linejoin="round" stroke-width="10.17"/>
    <circle id="Ellipse_375" data-name="Ellipse 375" cx="10.571" cy="10.571" r="10.571" transform="translate(313.748 287.921)" fill="#d1d7ff"/>
    <circle id="Ellipse_376" data-name="Ellipse 376" cx="11.554" cy="11.554" r="11.554" transform="translate(305.916 317.676)" fill="#727cb1"/>
    <circle id="Ellipse_377" data-name="Ellipse 377" cx="12.497" cy="12.497" r="12.497" transform="translate(301.412 352.323)" fill="#d1d7ff"/>
    <circle id="Ellipse_378" data-name="Ellipse 378" cx="13.574" cy="13.574" r="13.574" transform="translate(296.268 385.994)" fill="#727cb1"/>
    <path id="Path_3093" data-name="Path 3093" d="M1895.575,1726.72l-19.345,131.344h82.222l-13.713-131.025a4.105,4.105,0,0,0-4.049-3.688c-9.03-.087-32.254-.289-41.113-.143A4.1,4.1,0,0,0,1895.575,1726.72Z" transform="translate(-1566.922 -1438.988)" fill="#d1d7ff"/>
    <rect id="Rectangle_2026" data-name="Rectangle 2026" width="105.445" height="13.572" rx="6.786" transform="translate(298.608 418.814)" fill="#092e5e"/>
    <rect id="Rectangle_2027" data-name="Rectangle 2027" width="25.253" height="7.438" rx="3.719" transform="translate(323.828 294.38)" fill="#727cb1"/>
    <rect id="Rectangle_2028" data-name="Rectangle 2028" width="27.601" height="8.131" rx="4.065" transform="translate(316.932 324.736)" fill="#092e5e"/>
    <rect id="Rectangle_2029" data-name="Rectangle 2029" width="29.852" height="8.794" rx="4.397" transform="translate(313.328 359.96)" fill="#727cb1"/>
    <path id="Path_3094" data-name="Path 3094" d="M2262.994,1756.572a10.567,10.567,0,0,0-6.264-9.648V1746h-5.873v.128a10.557,10.557,0,0,0,0,20.885v.128h5.873v-.922A10.565,10.565,0,0,0,2262.994,1756.572Z" transform="translate(-1872.512 -1458.08)" fill="#727cb1"/>
    <circle id="Ellipse_379" data-name="Ellipse 379" cx="10.571" cy="10.571" r="10.571" transform="translate(373.258 287.921)" fill="#d1d7ff"/>
    <path id="Path_3095" data-name="Path 3095" d="M2291.324,1938.784a11.548,11.548,0,0,0-6.847-10.544v-1.01h-6.418v.141a11.538,11.538,0,0,0,0,22.823v.141h6.418v-1.01a11.547,11.547,0,0,0,6.847-10.541Z" transform="translate(-1894.554 -1609.554)" fill="#092e5e"/>
    <circle id="Ellipse_380" data-name="Ellipse 380" cx="11.554" cy="11.554" r="11.554" transform="translate(377.944 317.676)" fill="#727cb1"/>
    <path id="Path_3096" data-name="Path 3096" d="M2280.751,2150.747a12.489,12.489,0,0,0-7.4-11.4l0-1.093H2266.4v.153a12.479,12.479,0,0,0,0,24.688v.153h6.942v-1.093A12.486,12.486,0,0,0,2280.751,2150.747Z" transform="translate(-1884.131 -1785.927)" fill="#727cb1"/>
    <circle id="Ellipse_381" data-name="Ellipse 381" cx="12.497" cy="12.497" r="12.497" transform="translate(376.254 352.323)" fill="#d1d7ff"/>
    <path id="Path_3097" data-name="Path 3097" d="M2299.866,2339.735v-1.186h-7.539v.164a13.556,13.556,0,0,0,0,26.816v.164h7.539v-1.186a13.56,13.56,0,0,0,0-24.775Z" transform="translate(-1905.037 -1953.339)" fill="#092e5e"/>
    <circle id="Ellipse_382" data-name="Ellipse 382" cx="13.574" cy="13.574" r="13.574" transform="translate(380.756 385.211)" fill="#727cb1"/>
    <rect id="Rectangle_2030" data-name="Rectangle 2030" width="32.425" height="9.551" rx="4.776" transform="translate(309.211 393.506)" fill="#092e5e"/>
    <path id="Path_3098" data-name="Path 3098" d="M2079.384,1756.572a10.568,10.568,0,0,0-6.266-9.648V1746h-5.872v.128a10.557,10.557,0,0,0,0,20.885v.128h5.872v-.922A10.565,10.565,0,0,0,2079.384,1756.572Z" transform="translate(-1719.049 -1458.08)" fill="#d1d7ff"/>
    <circle id="Ellipse_383" data-name="Ellipse 383" cx="10.571" cy="10.571" r="10.571" transform="translate(343.112 287.921)" fill="#f5f2ff"/>
    <path id="Path_3099" data-name="Path 3099" d="M2048.106,1938.784a11.547,11.547,0,0,0-6.847-10.544v-1.01h-6.42v.141a11.538,11.538,0,0,0,0,22.823v.141h6.42v-1.01a11.549,11.549,0,0,0,6.847-10.541Z" transform="translate(-1691.269 -1609.554)" fill="#727cb1"/>
    <circle id="Ellipse_384" data-name="Ellipse 384" cx="11.554" cy="11.554" r="11.554" transform="translate(338.011 317.676)" fill="#d1d7ff"/>
    <path id="Path_3100" data-name="Path 3100" d="M2036.321,2150.747a12.492,12.492,0,0,0-7.405-11.405v-1.092h-6.942v.153a12.479,12.479,0,0,0,0,24.688v.153h6.942v-1.093A12.489,12.489,0,0,0,2036.321,2150.747Z" transform="translate(-1679.834 -1785.927)" fill="#d1d7ff"/>
    <circle id="Ellipse_385" data-name="Ellipse 385" cx="12.497" cy="12.497" r="12.497" transform="translate(336.126 352.323)" fill="#f5f2ff"/>
    <path id="Path_3101" data-name="Path 3101" d="M2022.962,2352.124a13.57,13.57,0,0,0-8.045-12.388v-1.186h-7.54v.164a13.556,13.556,0,0,0,0,26.816v.164h7.54v-1.186A13.567,13.567,0,0,0,2022.962,2352.124Z" transform="translate(-1666.874 -1953.339)" fill="#727cb1"/>
    <circle id="Ellipse_386" data-name="Ellipse 386" cx="13.574" cy="13.574" r="13.574" transform="translate(333.971 385.211)" fill="#d1d7ff"/>
    <circle id="Ellipse_387" data-name="Ellipse 387" cx="7.517" cy="7.517" r="7.517" transform="translate(514.173 305.396)" fill="#092e5e"/>
    <circle id="Ellipse_388" data-name="Ellipse 388" cx="7.517" cy="7.517" r="7.517" transform="translate(549.254 305.396)" fill="#092e5e"/>
    <rect id="Rectangle_2031" data-name="Rectangle 2031" width="108.027" height="15.592" rx="7.796" transform="translate(485.024 285.938)" fill="#727cb1"/>
    <path id="Path_3102" data-name="Path 3102" d="M3138.865,1798.37h10.855v12.946a5.429,5.429,0,0,1-5.43,5.43h0a5.43,5.43,0,0,1-5.43-5.43V1798.37Z" transform="translate(-2622.239 -1501.852)" fill="#727cb1"/>
    <path id="Path_3103" data-name="Path 3103" d="M3351.692,1798.37h10.857v12.946a5.43,5.43,0,0,1-5.43,5.43h0a5.429,5.429,0,0,1-5.43-5.43V1798.37Z" transform="translate(-2800.123 -1501.852)" fill="#727cb1"/>
    <rect id="Rectangle_2032" data-name="Rectangle 2032" width="42.041" height="29.234" rx="14.617" transform="translate(492.264 252.25)" fill="#d1d7ff"/>
    <rect id="Rectangle_2033" data-name="Rectangle 2033" width="7.379" height="4.455" transform="translate(499.086 281.483)" fill="#727cb1"/>
    <rect id="Rectangle_2034" data-name="Rectangle 2034" width="7.379" height="4.455" transform="translate(518.853 281.483)" fill="#727cb1"/>
    <line id="Line_14" data-name="Line 14" x2="34.245" transform="translate(495.813 267.423)" fill="none" stroke="#fff" stroke-linecap="round" stroke-miterlimit="10" stroke-width="5.09"/>
    <rect id="Rectangle_2035" data-name="Rectangle 2035" width="7.379" height="4.455" transform="translate(548.782 281.483)" fill="#727cb1"/>
    <rect id="Rectangle_2036" data-name="Rectangle 2036" width="7.379" height="4.455" transform="translate(568.55 281.483)" fill="#727cb1"/>
    <rect id="Rectangle_2037" data-name="Rectangle 2037" width="36.96" height="42.668" rx="18.23" transform="translate(543.214 239.233)" fill="#d1d7ff"/>
    <line id="Line_15" data-name="Line 15" x2="28.399" transform="translate(547.182 252.805)" fill="none" stroke="#fff" stroke-linecap="round" stroke-miterlimit="10" stroke-width="5.09"/>
    <line id="Line_16" data-name="Line 16" x2="28.399" transform="translate(547.182 266.796)" fill="none" stroke="#fff" stroke-linecap="round" stroke-miterlimit="10" stroke-width="5.09"/>
    <g transform="matrix(1, 0, 0, 1, 60.22, 62.88)" filter="url(#Rectangle_2038)">
      <rect id="Rectangle_2038-2" data-name="Rectangle 2038" width="502.825" height="15.313" rx="7.656" transform="translate(54.43 367.69)" fill="#d1d7ff"/>
    </g>
    <rect id="Rectangle_2039" data-name="Rectangle 2039" width="46.775" height="57.168" transform="translate(193.018 113.706)" fill="#d1d7ff"/>
    <rect id="Rectangle_2040" data-name="Rectangle 2040" width="35.081" height="42.877" transform="translate(198.863 120.851)" fill="#f5f2ff"/>
    <rect id="Rectangle_2041" data-name="Rectangle 2041" width="30.07" height="38.794" transform="translate(201.37 122.894)" fill="#d1d7ff"/>
    <rect id="Rectangle_2042" data-name="Rectangle 2042" width="13.782" height="17.78" transform="translate(209.513 130.892)" fill="#fff"/>
    <path id="Path_3104" data-name="Path 3104" d="M1423.077,685l-5.847,7.146v42.87l5.847,7.146Z" transform="translate(-1183.286 -571.288)" fill="#93a9e3"/>
    <path id="Path_3105" data-name="Path 3105" d="M1173.84,692.139,1168,685v57.168l6.5-6.5S1174.259,692.139,1173.84,692.139Z" transform="translate(-974.977 -571.288)" fill="#93a9e3"/>
    <rect id="Rectangle_2043" data-name="Rectangle 2043" width="22.274" height="27.223" transform="translate(252.041 141.485)" fill="#d1d7ff"/>
    <rect id="Rectangle_2044" data-name="Rectangle 2044" width="16.705" height="20.417" transform="translate(254.826 144.889)" fill="#f5f2ff"/>
    <rect id="Rectangle_2045" data-name="Rectangle 2045" width="14.319" height="18.473" transform="translate(256.02 145.861)" fill="#d1d7ff"/>
    <rect id="Rectangle_2046" data-name="Rectangle 2046" width="6.563" height="8.467" transform="translate(259.898 149.67)" fill="#fff"/>
    <path id="Path_3106" data-name="Path 3106" d="M1648.9,854.15l-2.791,3.4v20.417l2.791,3.4Z" transform="translate(-1374.586 -712.665)" fill="#93a9e3"/>
    <path id="Path_3107" data-name="Path 3107" d="M1530.2,857.554l-2.791-3.4v27.231l3.093-3.093S1530.4,857.554,1530.2,857.554Z" transform="translate(-1275.375 -712.665)" fill="#93a9e3"/>
    <rect id="Rectangle_2047" data-name="Rectangle 2047" width="32.666" height="32.287" transform="translate(127.63 392.327)" fill="#727cb1"/>
    <rect id="Rectangle_2048" data-name="Rectangle 2048" width="37.984" height="4.622" rx="2.311" transform="translate(124.97 388.024)" fill="#092e5e"/>
    <rect id="Rectangle_2049" data-name="Rectangle 2049" width="39.503" height="5.95" rx="2.975" transform="translate(124.212 424.614)" fill="#092e5e"/>
    <rect id="Rectangle_2050" data-name="Rectangle 2050" width="39.925" height="16.376" rx="8.188" transform="translate(123.859 371.706)" fill="#9db500"/>
    <rect id="Rectangle_2051" data-name="Rectangle 2051" width="39.925" height="16.376" rx="8.188" transform="translate(99.915 364.467)" fill="#9db500"/>
    <rect id="Rectangle_2052" data-name="Rectangle 2052" width="39.925" height="16.376" rx="8.188" transform="translate(107.711 353.33)" fill="#9db500"/>
    <rect id="Rectangle_2053" data-name="Rectangle 2053" width="54.96" height="22.544" rx="11.272" transform="translate(133.324 358.86)" fill="#5a8600"/>
    <rect id="Rectangle_2054" data-name="Rectangle 2054" width="54.96" height="22.544" rx="11.272" transform="translate(133.324 355.517)" fill="#9db500"/>
    <rect id="Rectangle_2055" data-name="Rectangle 2055" width="42.709" height="17.519" rx="8.76" transform="translate(120.517 344.664)" fill="#9db500"/>
    <rect id="Rectangle_2056" data-name="Rectangle 2056" width="28.789" height="11.809" rx="5.904" transform="translate(145.018 386.15)" fill="#5a8600"/>
    <rect id="Rectangle_2057" data-name="Rectangle 2057" width="28.789" height="11.809" rx="5.904" transform="translate(145.018 383.643)" fill="#9db500"/>
    <rect id="Rectangle_2058" data-name="Rectangle 2058" width="28.789" height="11.809" rx="5.904" transform="translate(108.824 386.15)" fill="#5a8600"/>
    <rect id="Rectangle_2059" data-name="Rectangle 2059" width="28.789" height="11.809" rx="5.904" transform="translate(108.824 383.643)" fill="#9db500"/>
    <rect id="Rectangle_2060" data-name="Rectangle 2060" width="28.789" height="11.809" rx="5.904" transform="translate(141.12 341.324)" fill="#9db500"/>
    <rect id="Rectangle_2061" data-name="Rectangle 2061" width="37.698" height="15.464" rx="7.732" transform="translate(127.2 330.586)" fill="#9db500"/>
    <rect id="Rectangle_2062" data-name="Rectangle 2062" width="19.012" height="7.799" rx="3.9" transform="translate(127.2 330.586)" fill="#bfd400"/>
    <rect id="Rectangle_2063" data-name="Rectangle 2063" width="12.779" height="5.243" rx="2.621" transform="translate(109.241 383.625)" fill="#bfd400"/>
    <rect id="Rectangle_2064" data-name="Rectangle 2064" width="35.615" height="14.61" rx="7.305" transform="translate(133.324 355.517)" fill="#bfd400"/>
    <path id="Path_3108" data-name="Path 3108" d="M1353.9,1164.781s-2.227-4.6-7.934-2.791-6.126,5.43-13.642,6.4-8.21,9.466-3.9,13.084c-3.064,1.115-5.847,6.822-.7,11.277s6.82-.975,8.209,2.366,16.7,8.492,22.823-.974c1.253-2.368,2.506-4.038,5.985-4.317s6.126-4.6.975-8.352c1.806-.278,5.43-3.9,1.113-6.96s-5.29-1.113-6.96-6.4S1353.9,1164.781,1353.9,1164.781Z" transform="translate(-1106.087 -969.609)" fill="#092e5e"/>
    <path id="Path_3109" data-name="Path 3109" d="M1592.571,2048.656s-4.454,3.479-1.392,10.718c2.088,7.8-3.342,12.53,10.016,34.385,12.388,21.438,11.832,29.651,11.832,30.347s8.632,3.9,7.935-3.758c-1.806-3.481-4.523-10.928-6.195-30.556s-.626-20.464-8.561-32.993c-3.967-6.055-5.221-8.352-6.474-11.694S1592.571,2048.656,1592.571,2048.656Z" transform="translate(-1327.776 -1707.311)" fill="#ffcfb8"/>
    <path id="Path_3110" data-name="Path 3110" d="M1176.269,2048.656s4.456,3.479,1.392,10.718c-2.087,7.8,3.341,12.53-10.016,34.385-12.39,21.438-11.834,29.651-11.834,30.347s-8.631,3.9-7.935-3.758c1.806-3.481,4.525-10.928,6.195-30.556s.627-20.464,8.563-32.993c3.967-6.055,5.22-8.352,6.472-11.694S1176.269,2048.656,1176.269,2048.656Z" transform="translate(-958.124 -1707.311)" fill="#ffcfb8"/>
    <path id="Path_3111" data-name="Path 3111" d="M1342.453,1654.538a84.4,84.4,0,0,0-8.633,11.24c3.758,2.923,11.554,4.315,15.869,22h9.049s8.353-22.551,16.984-22.691c-3.359-6.075-9.359-17.421-26.448-14.347A12.027,12.027,0,0,0,1342.453,1654.538Z" transform="translate(-1113.571 -1378.03)" fill="#ffcfb8"/>
    <path id="Path_3112" data-name="Path 3112" d="M1485.393,1731.615s-1.67,9.883,17.541,39.674c7.1,5.847,12.25,1.253,10.858-11-1.253-14.06-2.923-38.281-12.947-54.019S1485.393,1731.615,1485.393,1731.615Z" transform="translate(-1240.226 -1421.871)" fill="#ffcfb8"/>
    <path id="Path_3113" data-name="Path 3113" d="M1294.847,1731.615s1.672,9.883-17.541,39.674c-7.1,5.847-12.25,1.253-10.858-11,1.253-14.06,2.924-38.281,12.947-54.019S1294.847,1731.615,1294.847,1731.615Z" transform="translate(-1057.071 -1421.871)" fill="#ffcfb8"/>
    <path id="Path_3114" data-name="Path 3114" d="M1342.453,1654.538a84.4,84.4,0,0,0-8.633,11.24c3.758,2.923,11.554,4.315,15.869,22h9.049s8.353-22.551,16.984-22.691c-3.359-6.075-9.359-17.421-26.448-14.347A12.027,12.027,0,0,0,1342.453,1654.538Z" transform="translate(-1113.571 -1378.03)" fill="#164895"/>
    <path id="Path_3115" data-name="Path 3115" d="M1485.393,1731.615s-1.67,9.883,17.541,39.674c1.406-7.429,7.06-10.837,10.858-11-1.253-14.06-2.923-38.281-12.947-54.019S1485.393,1731.615,1485.393,1731.615Z" transform="translate(-1240.226 -1421.871)" fill="#164895"/>
    <path id="Path_3116" data-name="Path 3116" d="M1296.009,1731.67s2.1,8.909-17.11,38.7c-.417-6.4-6.239-8.878-11.288-10.016,1.253-14.06,2.924-38.281,12.947-54.019S1296.009,1731.67,1296.009,1731.67Z" transform="translate(-1058.232 -1421.926)" fill="#164895"/>
    <path id="Path_3117" data-name="Path 3117" d="M1533.586,1399.24l25.057,19.421s6.228,5.326,2.494,9.736a3.745,3.745,0,0,1-4.2,1.072c-5.464-2.1-18.982-9.292-24.65-12.344a6.91,6.91,0,0,1-3.464-4.55C1527.8,1408.1,1527.028,1400.35,1533.586,1399.24Z" transform="translate(-1275.99 -1168.256)" fill="#ffcfb8"/>
    <path id="Path_3118" data-name="Path 3118" d="M1534.811,1398.61l10.233,6.161-11.59,14.3S1524.579,1401.638,1534.811,1398.61Z" transform="translate(-1277.442 -1167.729)" fill="#d1d7ff"/>
    <path id="Path_3119" data-name="Path 3119" d="M1215.69,1399.24l-25.056,19.421s-6.228,5.326-2.494,9.736a3.743,3.743,0,0,0,4.2,1.072c5.464-2.1,18.982-9.292,24.652-12.344a6.907,6.907,0,0,0,3.463-4.55C1221.476,1408.1,1222.248,1400.35,1215.69,1399.24Z" transform="translate(-990.814 -1168.256)" fill="#ffcfb8"/>
    <line id="Line_17" data-name="Line 17" x1="10.441" y2="6.543" transform="translate(214.959 230.95)" fill="#ffcfb8"/>
    <path id="Path_3120" data-name="Path 3120" d="M1309.912,1399.24l-10.233,6.16,11.59,14.3S1320.146,1402.268,1309.912,1399.24Z" transform="translate(-1085.036 -1168.256)" fill="#d1d7ff"/>
    <path id="Path_3121" data-name="Path 3121" d="M1394.409,1379.047l-14.613-3.967-1.566,1.566-1.567-1.566-14.613,3.967s5.639,2.716,2.506,11.693-1.984,11.59,1.566,15.763l2.816,16.18s2.611,3.028,9.292,3.238c6.682-.21,9.293-3.238,9.293-3.238l2.818-16.183c3.55-4.175,4.7-6.786,1.567-15.762S1394.409,1379.047,1394.409,1379.047Z" transform="translate(-1137.166 -1148.063)" fill="#d1d7ff"/>
    <path id="Path_3122" data-name="Path 3122" d="M1435.562,1345.83h9.047v4.995a2.315,2.315,0,0,1-2.315,2.315h-4.418a2.315,2.315,0,0,1-2.315-2.315v-4.995Z" transform="translate(-1198.606 -1123.615)" fill="#ffa9a4"/>
    <path id="Path_3123" data-name="Path 3123" d="M1711.6,2504.227s-2.087.836-1.67,5.013c-.278,1.253-4.315,2.791-1.67,12.528H1740s3.34-10.718-8.354-11.971-10.3-3.76-10.3-6.125S1713.268,2501.861,1711.6,2504.227Z" transform="translate(-1425.781 -2090.077)" fill="#f05a28"/>
    <path id="Path_3124" data-name="Path 3124" d="M1140.213,1199.752c0-9.627-4.478-17.434-10.016-17.532h-4.491v1.747c-3.394,2.834-5.747,8.83-5.747,15.794s2.348,12.96,5.747,15.792v1.852h4.491v-.113C1135.729,1217.191,1140.213,1209.384,1140.213,1199.752Z" transform="translate(-934.825 -986.868)" fill="#f05a28"/>
    <ellipse id="Ellipse_389" data-name="Ellipse 389" cx="10.127" cy="17.644" rx="10.127" ry="17.644" transform="translate(180.052 195.455)" fill="#cc5026"/>
    <path id="Path_3125" data-name="Path 3125" d="M3274.776,2224.96l-1.6-1.914a9.658,9.658,0,0,1,3.283-14.984,28.394,28.394,0,0,1,13.812-2.425,30.576,30.576,0,0,1,14.613,3.738,9.706,9.706,0,0,1,2.274,15.409h0l-3.307-3.306h0a5.842,5.842,0,0,0-1.29-9.233,26.665,26.665,0,0,0-11.593-3.476,36.1,36.1,0,0,0-11.465,1.75,5.844,5.844,0,0,0-2.056,9.71c.985.941,1.334,1.248,1.334,1.248Z" transform="translate(-2732.6 -1842.191)" fill="#092e5e"/>
    <path id="Path_3126" data-name="Path 3126" d="M3272.409,2301.343a4.873,4.873,0,0,0-7.529-6.106l-1.067,1.068a26.683,26.683,0,0,0-16.485-.447l-.967-.969a4.865,4.865,0,0,0-7.852,5.5,26.681,26.681,0,1,0,33.9.957Z" transform="translate(-2696.905 -1915.651)" fill="#727cb1"/>
    <circle id="Ellipse_390" data-name="Ellipse 390" cx="17.452" cy="17.452" r="17.452" transform="translate(540.521 388.341)" fill="#93a9e3"/>
    <circle id="Ellipse_391" data-name="Ellipse 391" cx="14.666" cy="14.666" r="14.666" transform="translate(543.307 391.127)" fill="#727cb1"/>
    <path id="Path_3127" data-name="Path 3127" d="M3514.2,2322.572l-1.212-1.448a7.309,7.309,0,0,1,2.483-11.339,21.5,21.5,0,0,1,10.453-1.835,23.114,23.114,0,0,1,11.056,2.83,7.345,7.345,0,0,1,1.722,11.658h0l-2.5-2.5h0a4.418,4.418,0,0,0-.975-6.986,20.045,20.045,0,0,0-8.772-2.627,27.285,27.285,0,0,0-8.678,1.325,4.423,4.423,0,0,0-1.554,7.348c.747.712,1.011.944,1.011.944Z" transform="translate(-2933.501 -1927.711)" fill="#b00000"/>
    <path id="Path_3128" data-name="Path 3128" d="M3512.375,2380.414a3.688,3.688,0,0,0-5.7-4.618l-.806.806a20.2,20.2,0,0,0-12.479-.338l-.732-.732a3.681,3.681,0,0,0-5.94,4.161,20.2,20.2,0,1,0,25.654.722Z" transform="translate(-2906.455 -1983.344)" fill="#ff9a24"/>
    <circle id="Ellipse_392" data-name="Ellipse 392" cx="13.206" cy="13.206" r="13.206" transform="translate(579.449 399.077)" fill="#ff7724"/>
    <circle id="Ellipse_393" data-name="Ellipse 393" cx="11.099" cy="11.099" r="11.099" transform="translate(581.556 401.184)" fill="#ff9a24"/>
    <path id="Path_3129" data-name="Path 3129" d="M1070.767,1238.3c0-3.584-1.678-6.489-3.747-6.489a2.47,2.47,0,0,0-1.506.55c-2.992,1.573-14.391,7.553-14.874,7.553l1.806,2.791.14,10.579,15.009-8.576C1069.392,1244.221,1070.767,1241.542,1070.767,1238.3Z" transform="translate(-876.887 -1028.316)" fill="#092e5e"/>
    <path id="Path_3130" data-name="Path 3130" d="M1116.235,1363.64s3.448-10.65-5.116-17.019-10.441-19.315-10.016-25.371c-1.775-.941-4.385.417-4.385.417s-.775,7.224-.644,9.469c.509,8.725,1.365,17.951,6.5,25.345a22.989,22.989,0,0,0,5.963,5.95C1109.7,1363.221,1115.318,1366.065,1116.235,1363.64Z" transform="translate(-914.848 -1102.794)" fill="#ffcfb8"/>
    <path id="Path_3131" data-name="Path 3131" d="M1073.886,1265.737l-4.386-7.413v-6.472l8.666-5.221,5.011,8.144-4.28,10.858S1076.183,1268.348,1073.886,1265.737Z" transform="translate(-892.65 -1040.703)" fill="#ffcfb8"/>
    <rect id="Rectangle_2065" data-name="Rectangle 2065" width="10.963" height="10.649" transform="translate(172.703 214.324) rotate(-27.84)" fill="#092e5e"/>
    <path id="Path_3132" data-name="Path 3132" d="M1058.955,1245.1h.021a8.225,8.225,0,0,1,5.89,2.33l1.4,1.366-1.253,5.428-5.656,2.1a2.985,2.985,0,0,1-3.7-1.438l-.985-1.918-4.7-.626-.208-3.029,5.116-3.054A8.222,8.222,0,0,1,1058.955,1245.1Z" transform="translate(-876.16 -1039.425)" fill="#ffcfb8"/>
    <path id="Path_3133" data-name="Path 3133" d="M1700.251,1199.711c0-6.964-2.349-12.96-5.747-15.793v-1.747h-4.489c-5.545.1-10.016,7.906-10.016,17.532s4.479,17.432,10.016,17.531v.113h4.489v-1.852C1697.9,1212.682,1700.251,1206.679,1700.251,1199.711Z" transform="translate(-1402.911 -986.827)" fill="#f05a28"/>
    <ellipse id="Ellipse_394" data-name="Ellipse 394" cx="10.127" cy="17.644" rx="10.127" ry="17.644" transform="translate(282.166 195.455)" fill="#cc5026"/>
    <path id="Path_3134" data-name="Path 3134" d="M1755.314,1232.36a2.476,2.476,0,0,0-1.507-.55c-2.069,0-3.747,2.9-3.747,6.489,0,3.243,1.376,5.922,3.169,6.4l15.01,8.576.138-10.579,1.806-2.792C1769.7,1239.916,1758.3,1233.933,1755.314,1232.36Z" transform="translate(-1461.468 -1028.317)" fill="#092e5e"/>
    <path id="Path_3135" data-name="Path 3135" d="M1700.858,1363.64s-3.448-10.65,5.116-17.019,10.441-19.315,10.016-25.371c1.775-.941,4.386.417,4.386.417s.775,7.224.644,9.469c-.509,8.725-1.363,17.951-6.5,25.345a22.991,22.991,0,0,1-5.962,5.95C1707.394,1363.221,1701.774,1366.065,1700.858,1363.64Z" transform="translate(-1419.771 -1102.794)" fill="#ffcfb8"/>
    <path id="Path_3136" data-name="Path 3136" d="M1779.773,1265.737l4.384-7.413v-6.472l-8.666-5.221-5.011,8.144,4.28,10.858S1777.476,1268.348,1779.773,1265.737Z" transform="translate(-1478.535 -1040.703)" fill="#ffcfb8"/>
    <rect id="Rectangle_2066" data-name="Rectangle 2066" width="10.963" height="10.649" transform="translate(304.8 223.738) rotate(-152.16)" fill="#092e5e"/>
    <path id="Path_3137" data-name="Path 3137" d="M1780.343,1245.1h-.02a8.23,8.23,0,0,0-5.891,2.33l-1.4,1.366,1.253,5.428,5.655,2.1a2.985,2.985,0,0,0,3.7-1.438l.985-1.918,4.7-.626.21-3.029-5.118-3.054A8.221,8.221,0,0,0,1780.343,1245.1Z" transform="translate(-1480.666 -1039.425)" fill="#ffcfb8"/>
    <path id="Path_3138" data-name="Path 3138" d="M1046.156,2504.227s2.089.836,1.67,5.013c.279,1.253,4.317,2.791,1.671,12.528h-31.747s-3.341-10.718,8.353-11.971,10.3-3.76,10.3-6.125S1044.486,2501.861,1046.156,2504.227Z" transform="translate(-849.028 -2090.077)" fill="#f05a28"/>
    <path id="Path_3139" data-name="Path 3139" d="M2310.908,1126c-.627.417-6.263,14.825,2.506,24.638,9.814,10.65,13.782,19.211,9.195,25.893a15.924,15.924,0,0,1-11.573,6.962s-12.44-2.576-10.771-25.755,2.923-30.277,2.923-30.277Z" transform="translate(-1921.205 -939.879)" fill="#ffcfb8"/>
    <path id="Path_3140" data-name="Path 3140" d="M2671.866,1609.123l-9.466,8.84,18.514,33.061h6.4l23.527-33.132s-4.6-8.492-10.164-9.883S2671.866,1609.123,2671.866,1609.123Z" transform="translate(-2224.01 -1342.395)" fill="none" stroke="#000" stroke-miterlimit="10" stroke-width="2.81"/>
    <path id="Path_3141" data-name="Path 3141" d="M2814.16,1703.447s23.248,40.092,33.141,35.772c9.885-4.177,10.016-8.352,6.96-20.186-2.506-11.973-16.565-48.724-16.565-48.724S2816.526,1681.313,2814.16,1703.447Z" transform="translate(-2350.851 -1394.818)" fill="#ffcfb8"/>
    <path id="Path_3142" data-name="Path 3142" d="M2975.057,2014.688s-5.43,1.253-5.013,9.6-1.878,15.244,16.079,39.465,17.124,30.7,17.541,32.784c3.55,1.044,12.111.208,8.769-9.195-3.967-10.016-9.6-29.651-11.066-43.432s-15.034-23.387-17.123-28.405S2975.057,2014.688,2975.057,2014.688Z" transform="translate(-2481.121 -1681.279)" fill="#ffcfb8"/>
    <path id="Path_3143" data-name="Path 3143" d="M2579.095,1702.77s-23.248,40.092-33.132,35.777c-9.884-4.177-10.016-8.353-6.96-20.186,2.505-11.973,19.419-48.862,19.419-48.862S2576.728,1680.635,2579.095,1702.77Z" transform="translate(-2119.405 -1394.141)" fill="#ffcfb8"/>
    <path id="Path_3144" data-name="Path 3144" d="M2411.455,2014.688s5.43,1.253,5.011,9.6,1.88,15.244-16.078,39.465-17.124,30.7-17.541,32.784c-3.55,1.044-12.112.208-8.771-9.195,3.968-10.016,9.605-29.651,11.068-43.432s15.033-23.387,17.122-28.405S2411.455,2014.688,2411.455,2014.688Z" transform="translate(-1982.392 -1681.279)" fill="#ffcfb8"/>
    <path id="Path_3145" data-name="Path 3145" d="M1365.19,1435.528c.328-1.364.69-2.706,1.061-4.044l1.108-4.006c.363-1.333.713-2.668,1.017-4.011.144-.673.282-1.348.374-2.028a7.459,7.459,0,0,0,.059-2.059,5.776,5.776,0,0,1,.35,2.085,15.687,15.687,0,0,1-.141,2.113,30.4,30.4,0,0,1-.852,4.119q-.557,2.025-1.3,3.988A34.838,34.838,0,0,1,1365.19,1435.528Z" transform="translate(-1139.79 -1185.088)" fill="#93a9e3"/>
    <path id="Path_3146" data-name="Path 3146" d="M1386.81,1555.573c1.059.076,2.115.118,3.167.113a27.577,27.577,0,0,0,3.133-.164,12.783,12.783,0,0,0,3-.68,6.135,6.135,0,0,0,1.313-.673l.294-.22a2.315,2.315,0,0,1,.4-.261,2.263,2.263,0,0,1,.924-.255,2.3,2.3,0,0,1,.948.151,2.419,2.419,0,0,1,.427.215l.345.241a10.057,10.057,0,0,0,1.3.795,10.179,10.179,0,0,0,2.9.942c.251.044.507.064.763.1.256.01.512.028.77.036s.517,0,.775-.016l.388-.031a2.568,2.568,0,0,0,.387-.039,14.785,14.785,0,0,0,3.06-.734,11.506,11.506,0,0,1-2.991,1.138,9.869,9.869,0,0,1-6.4-.685l-.366-.189c-.123-.062-.245-.128-.361-.2l-.353-.215c-.115-.075-.228-.156-.342-.233l-.307-.212a1.642,1.642,0,0,0-.283-.136,1.488,1.488,0,0,0-.609-.09,1.533,1.533,0,0,0-.86.328l-.345.253a6.455,6.455,0,0,1-1.512.74,10.994,10.994,0,0,1-1.594.4,12.728,12.728,0,0,1-1.614.182,21.129,21.129,0,0,1-3.21-.069A22.267,22.267,0,0,1,1386.81,1555.573Z" transform="translate(-1157.86 -1297.13)" fill="#93a9e3"/>
    <path id="Path_3147" data-name="Path 3147" d="M1526.875,1444.893a29.592,29.592,0,0,1-2.12-3.1q-.969-1.607-1.78-3.308a27.362,27.362,0,0,1-1.4-3.5,14.953,14.953,0,0,1-.458-1.841,6.493,6.493,0,0,1-.09-1.893,10.238,10.238,0,0,0,.493,1.79c.2.582.438,1.149.68,1.717.483,1.133,1.008,2.25,1.537,3.368l1.6,3.358C1525.861,1442.607,1526.391,1443.734,1526.875,1444.893Z" transform="translate(-1270.015 -1195.01)" fill="#93a9e3"/>
    <path id="Path_3148" data-name="Path 3148" d="M1369.61,1449.121a9.868,9.868,0,0,1-.621-1.115c-.186-.381-.356-.765-.512-1.149s-.3-.788-.428-1.192a9.648,9.648,0,0,1-.319-1.235,9.731,9.731,0,0,1,.622,1.115c.187.38.354.765.512,1.149s.3.788.425,1.192A9.7,9.7,0,0,1,1369.61,1449.121Z" transform="translate(-1141.913 -1206.026)" fill="#93a9e3"/>
    <path id="Path_3149" data-name="Path 3149" d="M1538.15,1464.073a3.137,3.137,0,0,1,.11-.689,5.154,5.154,0,0,1,.22-.644,4.691,4.691,0,0,1,.3-.608,3.089,3.089,0,0,1,.412-.563,3.047,3.047,0,0,1-.11.69,5.189,5.189,0,0,1-.522,1.253A3.146,3.146,0,0,1,1538.15,1464.073Z" transform="translate(-1284.352 -1220.351)" fill="#93a9e3"/>
    <path id="Path_3150" data-name="Path 3150" d="M1411.07,1557.642c.383-1.033.191-.974-.964-.527a13.628,13.628,0,0,1-9.832-1.432,2.205,2.205,0,0,0-2.1-.112,20.183,20.183,0,0,1-11.224,1.744c2.791,16.048,2.791,16.051,2.791,16.051a9.3,9.3,0,0,0,3.561,2.174A20.572,20.572,0,0,1,1410.48,1561Q1410.754,1559.455,1411.07,1557.642Z" transform="translate(-1157.977 -1298.74)" fill="#93a9e3"/>
    <path id="Path_3151" data-name="Path 3151" d="M1290.859,1443.76l-2.505,1.983s3.55,8.875-.1,15.452c12.005-6.161,12.005-6.474,12.005-6.474Z" transform="translate(-1075.483 -1205.466)" fill="#ffa9a4"/>
    <path id="Path_3152" data-name="Path 3152" d="M1569.167,1440.58l-9.4,11.589,12.007,6.473s-3.863-11.067.73-15.347A21.042,21.042,0,0,1,1569.167,1440.58Z" transform="translate(-1302.422 -1202.808)" fill="#ffa9a4"/>
    <path id="Path_3153" data-name="Path 3153" d="M1272.156,2077.067a15.5,15.5,0,0,0-.492,3.948,4.54,4.54,0,0,0,.105.929,3.351,3.351,0,0,0,1.548,2.123,3.556,3.556,0,0,0,3.471.138,3.369,3.369,0,0,0,.752-.538,4.519,4.519,0,0,0,.619-.734c.393-.539.742-1.115,1.105-1.689a12.118,12.118,0,0,1-.754,1.9,4.8,4.8,0,0,1-.571.9,3.6,3.6,0,0,1-.821.726,3.755,3.755,0,0,1-2.108.614,4.089,4.089,0,0,1-2.135-.6,4.251,4.251,0,0,1-.87-.706,3.805,3.805,0,0,1-.63-.928,3.759,3.759,0,0,1-.328-1.062,4.572,4.572,0,0,1-.035-1.086,9.857,9.857,0,0,1,1.149-3.94Z" transform="translate(-1061.06 -1734.783)" fill="#ffa9a4"/>
    <path id="Path_3154" data-name="Path 3154" d="M2569.317,2011a15.515,15.515,0,0,0-.5,3.94,4.7,4.7,0,0,0,.107.929,3.333,3.333,0,0,0,1.548,2.123,3.554,3.554,0,0,0,3.469.138,3.344,3.344,0,0,0,.752-.538,4.54,4.54,0,0,0,.621-.734c.39-.539.74-1.115,1.1-1.691a12.234,12.234,0,0,1-.754,1.9,4.79,4.79,0,0,1-.571.895,3.556,3.556,0,0,1-.821.726,3.745,3.745,0,0,1-2.108.616,4.121,4.121,0,0,1-2.126-.6,4.189,4.189,0,0,1-.87-.706,3.866,3.866,0,0,1-.967-1.991,4.376,4.376,0,0,1-.034-1.084,9.668,9.668,0,0,1,1.153-3.926Z" transform="translate(-2145.231 -1679.57)" fill="#ffa9a4"/>
    <path id="Path_3155" data-name="Path 3155" d="M1601.54,2085.785a15.5,15.5,0,0,0,2.663,2.956,4.75,4.75,0,0,0,.773.525,3.328,3.328,0,0,0,2.627.214,3.557,3.557,0,0,0,2.371-2.539,3.373,3.373,0,0,0,.082-.921,4.56,4.56,0,0,0-.151-.949c-.153-.648-.361-1.289-.559-1.941a12.173,12.173,0,0,1,.948,1.806,4.731,4.731,0,0,1,.306,1.018,3.589,3.589,0,0,1,.015,1.092,3.728,3.728,0,0,1-.911,2,4.209,4.209,0,0,1-.836.737,4.275,4.275,0,0,1-1,.482,4.138,4.138,0,0,1-1.1.2,3.812,3.812,0,0,1-1.115-.128,3.73,3.73,0,0,1-1.025-.439,4.516,4.516,0,0,1-.844-.683,9.553,9.553,0,0,1-1.3-1.614A9.7,9.7,0,0,1,1601.54,2085.785Z" transform="translate(-1337.333 -1739.856)" fill="#ffa9a4"/>
    <path id="Path_3156" data-name="Path 3156" d="M2993.7,2038.3a15.6,15.6,0,0,0,2.663,2.956,4.673,4.673,0,0,0,.773.525,3.33,3.33,0,0,0,2.619.213,3.549,3.549,0,0,0,2.371-2.538,3.3,3.3,0,0,0,.082-.921,4.434,4.434,0,0,0-.151-.949c-.151-.657-.359-1.289-.558-1.94a12.15,12.15,0,0,1,.949,1.806,4.945,4.945,0,0,1,.306,1.018,3.591,3.591,0,0,1,.015,1.092,3.748,3.748,0,0,1-.912,2,4.207,4.207,0,0,1-.836.737,4.3,4.3,0,0,1-1.006.483,4.12,4.12,0,0,1-1.1.2,3.82,3.82,0,0,1-1.115-.128,3.756,3.756,0,0,1-1.024-.438,4.49,4.49,0,0,1-.842-.683,9.518,9.518,0,0,1-1.3-1.614,9.722,9.722,0,0,1-.926-1.814Z" transform="translate(-2500.913 -1700.173)" fill="#ffa9a4"/>
    <path id="Path_3157" data-name="Path 3157" d="M1513.56,1669.5s17.82,7.934,22.274,63.061" transform="translate(-1263.799 -1394.141)" fill="none" stroke="#5a6f8e" stroke-miterlimit="10" stroke-width="5.09"/>
    <path id="Path_3158" data-name="Path 3158" d="M1298.808,1669.5s-18.027,13.781-21.368,63.27" transform="translate(-1066.448 -1394.141)" fill="none" stroke="#5a6f8e" stroke-miterlimit="10" stroke-width="5.09"/>
    <path id="Path_3159" data-name="Path 3159" d="M1214.578,2163c-.108,4.832-2.742,11.024-5.385,15.132-2.956,4.6-7.86,6.82-10.976,11.136-6.486,8.983-5.983,22.2-4.887,32.662.281-3.228,1.97-11.905,11.782-28.874C1215.89,2175.436,1214.446,2168.946,1214.578,2163Z" transform="translate(-995.595 -1806.613)" fill="#ffa9a4"/>
    <path id="Path_3160" data-name="Path 3160" d="M2450.125,2190.863c-4.459,5.108-10.869,6.947-15.47,11.677-8.97,9.225-11.087,24.118-11.764,36.675.224-.026.44-.057.646-.095.306-.9.7-1.937,1.215-3.131.888-3.978,4-12.2,17.076-29.83,7.544-10.18,11.506-17.288,13.6-22.739A48.99,48.99,0,0,1,2450.125,2190.863Z" transform="translate(-2023.825 -1823.68)" fill="#ffa9a4"/>
    <path id="Path_3161" data-name="Path 3161" d="M2991.135,2190.863c4.459,5.108,10.871,6.947,15.47,11.677,8.971,9.225,11.088,24.118,11.766,36.675-.223-.026-.44-.057-.646-.095-.307-.9-.7-1.937-1.215-3.131-.889-3.978-4-12.2-17.076-29.83-7.545-10.18-11.507-17.288-13.605-22.739a49.24,49.24,0,0,0,5.305,7.443Z" transform="translate(-2494.335 -1823.68)" fill="#ffa9a4"/>
    <path id="Path_3162" data-name="Path 3162" d="M1600.475,2164.94c.108,4.832,2.742,11.023,5.385,15.132,2.956,4.6,7.86,6.819,10.977,11.135,6.485,8.981,5.983,22.2,4.886,32.663-.281-3.228-1.97-11.906-11.782-28.874C1599.164,2177.369,1600.608,2170.88,1600.475,2164.94Z" transform="translate(-1336.442 -1808.234)" fill="#ffa9a4"/>
    <path id="Path_3163" data-name="Path 3163" d="M1063.9,1253.76a1.688,1.688,0,0,0-1.384,1.074c-1.2,2.716-5.847,1.149-6.995,2.977-1.123,1.786-5.184-.716-5.556-.821v.038l1.886,2.791,2.99.4.985,1.918a2.985,2.985,0,0,0,3.7,1.438l4.236-1.574a14.391,14.391,0,0,0,1.642-1.478l1.036-4.486-1.4-1.366A8.157,8.157,0,0,0,1063.9,1253.76Z" transform="translate(-876.327 -1046.662)" fill="#ffa9a4"/>
    <path id="Path_3164" data-name="Path 3164" d="M974,1236.19c0-9.626-4.477-17.432-10.015-17.531v-.01h-4.5v1.749c-3.394,2.832-5.747,8.83-5.747,15.792s2.348,12.96,5.747,15.792v1.862h4.491v-.115C969.522,1253.625,974,1245.817,974,1236.19Z" transform="translate(-795.897 -1017.317)" fill="#cc5026"/>
    <ellipse id="Ellipse_395" data-name="Ellipse 395" cx="10.127" cy="17.644" rx="10.127" ry="17.644" transform="translate(152.768 201.438)" fill="#f05a28"/>
    <path id="Path_3165" data-name="Path 3165" d="M1099.986,1252.824a27.492,27.492,0,0,1-3.982,2.662,2.02,2.02,0,0,1-2.208-.076h0a1.911,1.911,0,0,1,.338-3.317l2.407-1.044,2.125-2.061a1.573,1.573,0,0,1,2.38.221l2.53,1.9a2,2,0,0,1,.79,1.792v.689a15.069,15.069,0,0,1-3.655,9.852l-1.56,1.806-.85-1.123a6.376,6.376,0,0,1-.616-6.7Z" transform="translate(-912.279 -1042.303)" fill="#ffcfb8"/>
    <path id="Path_3166" data-name="Path 3166" d="M1095.89,1253.568a9.5,9.5,0,0,1,1.228-1.212,15.981,15.981,0,0,1,2.819-1.88,9.226,9.226,0,0,1,1.591-.667,9.216,9.216,0,0,1-1.228,1.214,15.35,15.35,0,0,1-1.359,1.013,15.647,15.647,0,0,1-1.46.865A9.292,9.292,0,0,1,1095.89,1253.568Z" transform="translate(-914.707 -1043.361)" fill="#ffa9a4"/>
    <path id="Path_3167" data-name="Path 3167" d="M2420.411,979.773c2.506-11.462-.8-21.923-7.372-23.479v-.012l-5.339-1.172-.455,2.082c-4.78,2.489-9.137,9.019-10.948,17.309s-.578,16.043,2.727,20.3l-.483,2.207,5.346,1.169.03-.136C2410.54,999.366,2417.905,991.235,2420.411,979.773Z" transform="translate(-2000.899 -797.048)" fill="#f05a28"/>
    <ellipse id="Ellipse_396" data-name="Ellipse 396" cx="21.506" cy="12.344" rx="21.506" ry="12.344" transform="translate(384.693 197.39) rotate(-77.67)" fill="#cc5026"/>
    <path id="Path_3168" data-name="Path 3168" d="M2338.543,1021.413c.932-4.269-.309-8.165-2.773-8.7a3.023,3.023,0,0,0-1.937.263c-3.971,1.1-19.1,5.254-19.677,5.128l1.43,3.786L2313,1034.52l20.1-6.307C2335.365,1028.105,2337.7,1025.273,2338.543,1021.413Z" transform="translate(-1931.978 -845.143)" fill="#092e5e"/>
    <path id="Path_3169" data-name="Path 3169" d="M2336.284,1044.966,2333,1035l1.685-7.707,11.677-3.96,3.847,11-7.923,11.822S2338.341,1048.672,2336.284,1044.966Z" transform="translate(-1948.694 -854.067)" fill="#ffcfb8"/>
    <rect id="Rectangle_2067" data-name="Rectangle 2067" width="13.362" height="12.979" transform="translate(380.216 175.917) rotate(-15.51)" fill="#092e5e"/>
    <path id="Path_3170" data-name="Path 3170" d="M2331.019,1016.241h.025a10.03,10.03,0,0,1,6.4,4.307l1.313,1.992-2.9,6.146-7.282,1.033a3.642,3.642,0,0,1-4.029-2.675l-.67-2.54-5.432-1.97.539-3.66,6.888-2.3A10.026,10.026,0,0,1,2331.019,1016.241Z" transform="translate(-1936.533 -847.983)" fill="#ffcfb8"/>
    <path id="Path_3171" data-name="Path 3171" d="M2338.694,1035.022a2.061,2.061,0,0,0-1.928.92c-2.134,2.919-7.26-.155-9.1,1.722-1.806,1.836-5.987-2.2-6.4-2.428v.046l1.519,3.813,3.456,1.253.67,2.54a3.641,3.641,0,0,0,4.029,2.675l5.453-.773a17.659,17.659,0,0,0,2.333-1.325l2.4-5.072-1.314-1.992A10.082,10.082,0,0,0,2338.694,1035.022Z" transform="translate(-1938.881 -863.829)" fill="#ffa9a4"/>
    <path id="Path_3172" data-name="Path 3172" d="M2213.026,979.93c2.506-11.462-.8-21.923-7.372-23.479v-.011l-5.344-1.169-.455,2.082c-4.78,2.491-9.137,9.019-10.949,17.311s-.578,16.042,2.728,20.3l-.482,2.205,5.346,1.169.03-.136C2203.155,999.523,2210.521,991.392,2213.026,979.93Z" transform="translate(-1827.561 -797.182)" fill="#cc5026"/>
    <ellipse id="Ellipse_397" data-name="Ellipse 397" cx="21.506" cy="12.344" rx="21.506" ry="12.344" transform="translate(350.646 197.413) rotate(-77.67)" fill="#f05a28"/>
    <path id="Path_3173" data-name="Path 3173" d="M2378.921,1033.707c-.057.259-3.4,1.438-5.435,2.135a2.463,2.463,0,0,1-2.611-.657h0a2.33,2.33,0,0,1,1.266-3.862l3.138-.617,3.067-1.9a1.919,1.919,0,0,1,2.778.883l2.519,2.916a2.434,2.434,0,0,1,.473,2.34l-.179.821a18.361,18.361,0,0,1-6.916,10.778l-2.33,1.75-.719-1.56a7.772,7.772,0,0,1,1.01-8.134Z" transform="translate(-1979.837 -858.403)" fill="#ffcfb8"/>
    <path id="Path_3174" data-name="Path 3174" d="M2376.13,1032.163a11.4,11.4,0,0,1,1.778-1.123,19.173,19.173,0,0,1,1.883-.854,18.871,18.871,0,0,1,1.97-.657,11.238,11.238,0,0,1,2.069-.379,11.272,11.272,0,0,1-1.779,1.125,18.81,18.81,0,0,1-1.883.854,19.2,19.2,0,0,1-1.962.657A11.364,11.364,0,0,1,2376.13,1032.163Z" transform="translate(-1984.742 -858.931)" fill="#ffa9a4"/>
    <path id="Path_3175" data-name="Path 3175" d="M3081.4,974.048c-2.506-11.462.8-21.924,7.37-23.479v-.011l5.347-1.168.454,2.08c4.778,2.491,9.136,9.019,10.949,17.311s.575,16.042-2.728,20.3l.481,2.205-5.344,1.169-.03-.135C3091.271,993.64,3083.908,985.51,3081.4,974.048Z" transform="translate(-2573.514 -792.267)" fill="#f05a28"/>
    <ellipse id="Ellipse_398" data-name="Ellipse 398" cx="12.344" cy="21.506" rx="12.344" ry="21.506" transform="translate(509.397 159.7) rotate(-12.33)" fill="#cc5026"/>
    <path id="Path_3176" data-name="Path 3176" d="M3162.94,1015.65c-.933-4.269.307-8.164,2.771-8.7a3.014,3.014,0,0,1,1.937.263c3.97,1.1,19.1,5.254,19.677,5.126l-1.431,3.786,2.59,12.643-20.105-6.307C3166.117,1022.342,3163.784,1019.512,3162.94,1015.65Z" transform="translate(-2642.105 -840.326)" fill="#092e5e"/>
    <path id="Path_3177" data-name="Path 3177" d="M3209.229,1039.165l3.292-9.968-1.687-7.717-11.677-3.96-3.847,11,7.924,11.822S3207.173,1042.871,3209.229,1039.165Z" transform="translate(-2669.421 -849.211)" fill="#ffcfb8"/>
    <rect id="Rectangle_2068" data-name="Rectangle 2068" width="13.362" height="12.979" transform="translate(543.719 187.479) rotate(-164.49)" fill="#092e5e"/>
    <path id="Path_3178" data-name="Path 3178" d="M3198.669,1010.46h-.022a10.026,10.026,0,0,0-6.4,4.307l-1.313,1.992,2.9,6.139,7.282,1.031a3.638,3.638,0,0,0,4.029-2.675l.672-2.54,5.431-1.97-.54-3.66-6.888-2.3A10.03,10.03,0,0,0,3198.669,1010.46Z" transform="translate(-2665.759 -843.148)" fill="#ffcfb8"/>
    <path id="Path_3179" data-name="Path 3179" d="M3193.362,1029.271a2.055,2.055,0,0,1,1.927.92c2.135,2.919,7.261-.154,9.1,1.722,1.806,1.836,5.986-2.2,6.4-2.428l.008.044-1.52,3.814-3.448,1.251-.672,2.54a3.638,3.638,0,0,1-4.029,2.675l-5.451-.773a17.8,17.8,0,0,1-2.335-1.323l-2.4-5.073,1.313-1.992A9.85,9.85,0,0,1,3193.362,1029.271Z" transform="translate(-2665.776 -859.023)" fill="#ffa9a4"/>
    <path id="Path_3180" data-name="Path 3180" d="M3288.732,974.188c-2.505-11.462.8-21.924,7.371-23.479V950.7l5.346-1.167.455,2.082c4.778,2.489,9.136,9.019,10.948,17.309s.576,16.042-2.727,20.3l.481,2.205-5.344,1.169-.03-.135C3298.606,993.775,3291.243,985.65,3288.732,974.188Z" transform="translate(-2746.802 -792.384)" fill="#cc5026"/>
    <ellipse id="Ellipse_399" data-name="Ellipse 399" cx="12.344" cy="21.506" rx="12.344" ry="21.506" transform="translate(543.443 159.722) rotate(-12.33)" fill="#f05a28"/>
    <path id="Path_3181" data-name="Path 3181" d="M3183.08,1027.87c.056.259,3.4,1.438,5.433,2.135a2.463,2.463,0,0,0,2.611-.657h0a2.328,2.328,0,0,0-1.266-3.86l-3.138-.632-3.067-1.9a1.917,1.917,0,0,0-2.777.885l-2.518,2.914a2.429,2.429,0,0,0-.473,2.34l.177.821a18.366,18.366,0,0,0,6.916,10.779l2.33,1.748.719-1.558a7.77,7.77,0,0,0-1.008-8.136Z" transform="translate(-2654.757 -853.512)" fill="#ffcfb8"/>
    <path id="Path_3182" data-name="Path 3182" d="M3217.817,1026.4a11.457,11.457,0,0,1-2.067-.381,19.306,19.306,0,0,1-1.97-.657,18.938,18.938,0,0,1-1.883-.852,11.344,11.344,0,0,1-1.777-1.125,11.265,11.265,0,0,1,2.069.378,19.731,19.731,0,0,1,3.845,1.506A11.329,11.329,0,0,1,3217.817,1026.4Z" transform="translate(-2681.798 -854.117)" fill="#ffa9a4"/>
    <path id="Path_3183" data-name="Path 3183" d="M1775.712,1257.15a1.693,1.693,0,0,1,1.384,1.076c1.2,2.714,5.847,1.149,6.995,2.975,1.125,1.788,5.183-.714,5.556-.821v.036l-1.883,2.785-2.988.4-.985,1.917a2.985,2.985,0,0,1-3.7,1.437l-4.235-1.575a14.464,14.464,0,0,1-1.642-1.478l-1.036-4.487,1.4-1.366A8.388,8.388,0,0,1,1775.712,1257.15Z" transform="translate(-1480.792 -1049.496)" fill="#ffa9a4"/>
    <path id="Path_3184" data-name="Path 3184" d="M1801.4,1256.538a9.3,9.3,0,0,1-1.591-.667,16.221,16.221,0,0,1-2.821-1.878,9.319,9.319,0,0,1-1.226-1.213,9.157,9.157,0,0,1,1.591.667,15.366,15.366,0,0,1,1.46.865,15.961,15.961,0,0,1,1.36,1.015A9.433,9.433,0,0,1,1801.4,1256.538Z" transform="translate(-1499.665 -1045.843)" fill="#ffa9a4"/>
    <path id="Path_3185" data-name="Path 3185" d="M1765.309,1252.824a27.488,27.488,0,0,0,3.982,2.662,2.023,2.023,0,0,0,2.21-.076h0a1.913,1.913,0,0,0-.338-3.317l-2.408-1.044-2.125-2.061a1.573,1.573,0,0,0-2.381.221l-2.53,1.9a1.992,1.992,0,0,0-.789,1.792v.689a15.067,15.067,0,0,0,3.654,9.852l1.561,1.806.849-1.123a6.375,6.375,0,0,0,.617-6.7Z" transform="translate(-1470.545 -1042.303)" fill="#ffcfb8"/>
    <path id="Path_3186" data-name="Path 3186" d="M1866.447,1236.19c0-6.961-2.348-12.96-5.747-15.792v-1.749h-4.484v.01c-5.545.1-10.016,7.9-10.016,17.531s4.479,17.434,10.016,17.531v.115h4.489v-1.854C1864.1,1249.15,1866.447,1243.154,1866.447,1236.19Z" transform="translate(-1541.823 -1017.317)" fill="#cc5026"/>
    <ellipse id="Ellipse_400" data-name="Ellipse 400" cx="10.127" cy="17.644" rx="10.127" ry="17.644" transform="translate(309.451 201.438)" fill="#f05a28"/>
    <path id="Path_3187" data-name="Path 3187" d="M2567.622,1589.841l-7.778,6.8a12.914,12.914,0,0,0-3.4,4.717l-18.682,44.44s19.42,11.277,28.19,17.541l12.947-28.607,3.758.209,20.673,28.815,24.222-17.958s-16.5-52.83-32.776-58.469C2578.271,1581.906,2567.622,1589.841,2567.622,1589.841Z" transform="translate(-2119.834 -1323.879)" fill="#092e5e"/>
    <path id="Path_3188" data-name="Path 3188" d="M2693.624,1201.834c-4.317-2.366-23.11-4.454-23.11-4.454l-4.036-.14h-3.033l-4.038.14s-18.793,2.089-23.108,4.454c-1.115,8.911.834,28.121,5.149,37.726s8.354,25.337,8.354,28.816c3.339,4.038,9.195,4.873,13.78,4.734h2.755c4.6.14,10.441-.7,13.782-4.734,0-3.479,4.036-19.21,8.352-28.816S2694.729,1210.745,2693.624,1201.834Z" transform="translate(-2201.936 -999.422)" fill="#ff9a24"/>
    <path id="Path_3189" data-name="Path 3189" d="M2757.755,1146.8h18.59v7.517a6.9,6.9,0,0,1-6.9,6.9h-4.8a6.9,6.9,0,0,1-6.9-6.9V1146.8Z" transform="translate(-2303.704 -957.264)" fill="#ffa9a4"/>
    <path id="Path_3190" data-name="Path 3190" d="M2742.59,1828.3c-.884-.832-1.7-1.717-2.5-2.616s-1.566-1.824-2.315-2.763-1.478-1.9-2.176-2.873-1.376-1.97-1.988-3.024c.887.831,1.7,1.716,2.5,2.614s1.566,1.824,2.315,2.763,1.478,1.9,2.174,2.877S2741.978,1827.247,2742.59,1828.3Z" transform="translate(-2283.528 -1517.44)" fill="#314f82"/>
    <path id="Path_3191" data-name="Path 3191" d="M1427.557,1845.254a10.315,10.315,0,0,1-.946-1.535,17.171,17.171,0,0,1-.724-1.621,16.788,16.788,0,0,1-.558-1.686,9.962,9.962,0,0,1-.328-1.772,10.056,10.056,0,0,1,.947,1.535,16.978,16.978,0,0,1,.724,1.621,17.541,17.541,0,0,1,.556,1.686A10.241,10.241,0,0,1,1427.557,1845.254Z" transform="translate(-1189.78 -1535.51)" fill="#314f82"/>
    <path id="Path_3192" data-name="Path 3192" d="M2545.524,1959.46l-.974,2.791s14.337,4.732,17.818,13.5l3.759-3.481Z" transform="translate(-2125.51 -1636.492)" fill="#ffa9a4"/>
    <path id="Path_3193" data-name="Path 3193" d="M2945.58,1985.961l2.791,2.228s8.353-9.6,16.419-13.643l-.417-2.366Z" transform="translate(-2460.693 -1647.124)" fill="#ffa9a4"/>
    <path id="Path_3194" data-name="Path 3194" d="M2413.138,1224.774l-17.744,10.62a4.181,4.181,0,0,0-1.819,2.264l-.4,1.2a3.891,3.891,0,0,1-3.229,2.627h0a3.886,3.886,0,0,0-1.864.746l-7.937,5.921L2369,1265.841l23.752-1.678a4.541,4.541,0,0,0,3.094-1.537h0a4.528,4.528,0,0,1,4.223-1.477l.586.107a4.538,4.538,0,0,0,2.826-.4l8.884-4.4a9.639,9.639,0,0,0,5.356-8.1C2418.218,1239.471,2418.4,1223.357,2413.138,1224.774Z" transform="translate(-1978.783 -1022.362)" fill="#ffcfb8"/>
    <path id="Path_3195" data-name="Path 3195" d="M2959.713,1222.234l17.743,10.62a4.168,4.168,0,0,1,1.819,2.264l.4,1.2a3.893,3.893,0,0,0,3.23,2.627h0a3.883,3.883,0,0,1,1.863.744l7.937,5.922,11.132,17.687-23.752-1.678a4.522,4.522,0,0,1-3.092-1.537h0a4.535,4.535,0,0,0-4.225-1.478l-.586.105a4.528,4.528,0,0,1-2.824-.4l-8.884-4.4a9.638,9.638,0,0,1-5.354-8.1C2954.632,1236.931,2954.447,1220.817,2959.713,1222.234Z" transform="translate(-2468.476 -1020.239)" fill="#ffcfb8"/>
    <path id="Path_3196" data-name="Path 3196" d="M3184.535,1122.63c.625.419,6.264,14.827-2.505,24.64-9.814,10.649-13.782,19.21-9.195,25.893a15.918,15.918,0,0,0,11.572,6.96s12.441-2.575,10.771-25.753-2.923-30.277-2.923-30.277Z" transform="translate(-2649.047 -937.063)" fill="#ffcfb8"/>
    <path id="Path_3197" data-name="Path 3197" d="M2562.388,1221.83l-16.148,9.468,12.25,23.944,6.264-3.336S2572.963,1227.817,2562.388,1221.83Z" transform="translate(-2126.922 -1019.975)" fill="#ff9a24"/>
    <path id="Path_3198" data-name="Path 3198" d="M2953.078,1222.927l14.942,8.755-12.252,23.944-6.264-3.341s-7.485-21.951,1.042-29.147A2.209,2.209,0,0,1,2953.078,1222.927Z" transform="translate(-2461.434 -1020.639)" fill="#ff9a24"/>
    <path id="Path_3199" data-name="Path 3199" d="M2666.271,1645.33a30.225,30.225,0,0,1-2.375,1.995q-1.228.936-2.507,1.8t-2.609,1.642a29.389,29.389,0,0,1-2.74,1.45,29.354,29.354,0,0,1,2.374-1.995q1.226-.94,2.509-1.8t2.608-1.642A30.263,30.263,0,0,1,2666.271,1645.33Z" transform="translate(-2218.694 -1373.939)" fill="#314f82"/>
    <path id="Path_3200" data-name="Path 3200" d="M2904,1640.24a26.3,26.3,0,0,1,2.538,1.4q1.23.762,2.4,1.6t2.3,1.744a25.452,25.452,0,0,1,2.159,1.938,25.987,25.987,0,0,1-2.538-1.4q-1.23-.762-2.4-1.6t-2.3-1.745A26.084,26.084,0,0,1,2904,1640.24Z" transform="translate(-2425.941 -1369.686)" fill="#314f82"/>
    <path id="Path_3201" data-name="Path 3201" d="M2930.74,1660.59c1.289,1.835,2.509,3.717,3.712,5.61s2.365,3.811,3.5,5.747,2.233,3.891,3.313,5.858,2.1,3.965,3.12,5.97c1.993,4.023,3.86,8.113,5.453,12.314.4,1.049.78,2.108,1.149,3.169s.706,2.134,1.013,3.215a53.275,53.275,0,0,1,1.51,6.558c-.527-2.179-1.172-4.322-1.9-6.435s-1.524-4.2-2.378-6.267l-.318-.775-.328-.769c-.222-.514-.433-1.029-.657-1.54l-.679-1.532c-.229-.51-.469-1.016-.7-1.523-.936-2.03-1.9-4.049-2.9-6.046s-2.013-3.993-3.061-5.97-2.11-3.941-3.182-5.911Q2934.143,1666.391,2930.74,1660.59Z" transform="translate(-2448.29 -1386.695)" fill="#314f82"/>
    <path id="Path_3202" data-name="Path 3202" d="M2572.386,1670.77c-1.8,3.969-3.635,7.914-5.483,11.856l-5.548,11.822c-.936,1.97-1.847,3.941-2.771,5.911l-1.379,2.956-1.37,2.956c-1.82,3.952-3.633,7.906-5.375,11.9,1.419-4.121,3.069-8.157,4.778-12.165.845-2.008,1.744-3.991,2.627-5.983.445-.985.908-1.98,1.361-2.97s.911-1.97,1.374-2.955q1.4-2.956,2.818-5.893c.964-1.954,1.913-3.913,2.9-5.854C2568.281,1678.453,2570.283,1674.584,2572.386,1670.77Z" transform="translate(-2130.449 -1395.203)" fill="#314f82"/>
    <path id="Path_3203" data-name="Path 3203" d="M2757.78,1144.776s0,8.075,8.421,8,10.72-8.84,9.816-10.441S2757.78,1144.776,2757.78,1144.776Z" transform="translate(-2303.729 -953.222)" fill="#ff6d88"/>
    <path id="Path_3204" data-name="Path 3204" d="M1435.56,1343.131a4.1,4.1,0,0,0,4.351,4.136c4.351-.036,5.538-4.568,5.072-5.4S1435.56,1343.131,1435.56,1343.131Z" transform="translate(-1198.606 -1120.145)" fill="#ff6d88"/>
    <path id="Path_3205" data-name="Path 3205" d="M2729.682,1019.324c-.208-.312-.522-12.424-.522-12.424l28.295-.87s-.835,12.669-2.714,14.027S2729.682,1019.324,2729.682,1019.324Z" transform="translate(-2279.808 -839.608)" fill="#092e5e"/>
    <path id="Path_3206" data-name="Path 3206" d="M2748.576,1015.16h20.952v21.509a4.832,4.832,0,0,1-4.832,4.832H2753.4a4.832,4.832,0,0,1-4.832-4.832V1015.16Z" transform="translate(-2296.031 -847.238)" fill="#ffcfb8"/>
    <ellipse id="Ellipse_401" data-name="Ellipse 401" cx="2.542" cy="3.987" rx="2.542" ry="3.987" transform="translate(447.896 177.992) rotate(-13.73)" fill="#ffcfb8"/>
    <ellipse id="Ellipse_402" data-name="Ellipse 402" cx="3.987" cy="2.542" rx="3.987" ry="2.542" transform="translate(470.894 184.542) rotate(-76.27)" fill="#ffcfb8"/>
    <path id="Path_3207" data-name="Path 3207" d="M2726.691,953.046s-3.448,1.461-1.253,3.655c2.134,2.135,21.051,3.777,27.9-1.269a1.934,1.934,0,0,0,.716-1.121c.239-1.023.045-2.01-2.406-2.517,1.358-.417,3.967-3.341.313-7.2.208,1.149-1.775,5.637-5.952,3.967-5.011-2.093-15.244-5.213-18.583-2.093S2725.648,952.837,2726.691,953.046Z" transform="translate(-2276.086 -788.255)" fill="#314f82"/>
    <path id="Path_3208" data-name="Path 3208" d="M1400,1216.11h18.933v16.183a7.622,7.622,0,0,1-7.622,7.622h-3.689a7.621,7.621,0,0,1-7.622-7.622V1216.11Z" transform="translate(-1168.885 -1015.194)" fill="#ffcfb8"/>
    <ellipse id="Ellipse_403" data-name="Ellipse 403" cx="2.297" cy="3.602" rx="2.297" ry="3.602" transform="translate(226.907 210.016) rotate(-13.73)" fill="#ffcfb8"/>
    <ellipse id="Ellipse_404" data-name="Ellipse 404" cx="3.602" cy="2.297" rx="3.602" ry="2.297" transform="translate(247.686 215.931) rotate(-76.27)" fill="#ffcfb8"/>
    <path id="Path_3209" data-name="Path 3209" d="M1373.438,1194.882c-1.533,1.133-2.886,3.1-.067,5.857,2.506,1.253,6.578,2.819,20.568-6.683,3.3-3.12-12.462-1.136-17.114-.493A7.363,7.363,0,0,0,1373.438,1194.882Z" transform="translate(-1145.257 -995.334)" fill="#092e5e"/>
    <path id="Path_3210" data-name="Path 3210" d="M1483.433,1201.037a1.841,1.841,0,0,0-2.734,1.547c-.011.952.462,2.205,2.02,3.765,4.072,4.072,10.546,5.533,8.979,1.67C1490.547,1205.181,1485.846,1202.342,1483.433,1201.037Z" transform="translate(-1236.333 -1002.405)" fill="#092e5e"/>
    <path id="Path_3211" data-name="Path 3211" d="M2535.968,1279.49l-2.018,1.6s11.066,17.749,6.264,25.893l8.144-3.969Z" transform="translate(-2116.65 -1068.167)" fill="#ffa9a4"/>
    <path id="Path_3212" data-name="Path 3212" d="M3015.332,1277.79l-12.252,23.944,4.411,1.949s3.758-17.541,9.6-25.057A4.56,4.56,0,0,1,3015.332,1277.79Z" transform="translate(-2508.752 -1066.747)" fill="#ffa9a4"/>
    <path id="Path_3213" data-name="Path 3213" d="M2719.72,1511.178c0-2.885,2.775-14.184,6.182-23.438-4.505,2.744-7.717,4.144-13.464,1.695-7.493-3.187-17.125.294-21.937,1.721-2.072.614-4.747-.985-7.121-3,3.336,9.172,6.029,20.181,6.029,23.021,3.34,4.037,9.194,4.873,13.78,4.734h2.755C2710.532,1516.051,2716.379,1515.216,2719.72,1511.178Z" transform="translate(-2241.544 -1242.225)" fill="#ff7724"/>
    <path id="Path_3214" data-name="Path 3214" d="M2634.591,1260.842a67.089,67.089,0,0,1-2.111-7.083c-.3-1.2-.55-2.406-.793-3.613s-.432-2.432-.607-3.655-.294-2.463-.376-3.693a35.158,35.158,0,0,1-.048-3.721,19.585,19.585,0,0,1,.483-3.7,10.556,10.556,0,0,1,.593-1.775,6.213,6.213,0,0,1,.985-1.575,8.942,8.942,0,0,0-1.17,3.43,17.51,17.51,0,0,0-.187,1.806c-.033.606-.054,1.214-.045,1.821s.027,1.217.054,1.826.078,1.217.131,1.824q.157,1.822.414,3.638t.556,3.627c.206,1.207.429,2.412.657,3.612C2633.578,1256.028,2634.077,1258.432,2634.591,1260.842Z" transform="translate(-2197.453 -1028.5)" fill="#ff7724"/>
    <path id="Path_3215" data-name="Path 3215" d="M2971.238,1238.36a27.622,27.622,0,0,1,.951,3.405q.372,1.733.594,3.492c.165,1.171.247,2.351.309,3.532s.052,2.366.023,3.548-.136,2.365-.262,3.54c-.079.586-.15,1.174-.248,1.757-.049.292-.087.586-.146.875l-.165.871a35.138,35.138,0,0,1-2.093,6.753,66.022,66.022,0,0,0,1.451-6.866,59.451,59.451,0,0,0,.636-6.957,64.174,64.174,0,0,0-.143-6.988c-.091-1.162-.2-2.326-.352-3.487S2971.464,1239.516,2971.238,1238.36Z" transform="translate(-2481.271 -1033.791)" fill="#ff7724"/>
    <path id="Path_3216" data-name="Path 3216" d="M2582.688,1356.94a13.852,13.852,0,0,0-.418-2.84S2582.431,1355.179,2582.688,1356.94Z" transform="translate(-2157.036 -1130.527)" fill="#ffa9a4"/>
    <path id="Path_3217" data-name="Path 3217" d="M2347.258,1362.783c.11,2.627-.574,6.137-5.011,6.137-7.1,0-4.386,2.3-9.607,5.011-5.175,2.693-28.2,7.832-32.05-12.841.972,16.839,10.836,18.9,10.836,18.9a11.14,11.14,0,0,0,1.506-.219l22.646-1.6a4.538,4.538,0,0,0,3.092-1.537,4.534,4.534,0,0,1,4.225-1.478l.586.107a4.538,4.538,0,0,0,2.822-.4l2.507-1.243C2348.219,1369.374,2347.634,1365.344,2347.258,1362.783Z" transform="translate(-1921.605 -1136.37)" fill="#ffa9a4"/>
    <path id="Path_3218" data-name="Path 3218" d="M3034.13,1353.532a13.9,13.9,0,0,1,.419-2.842S3034.388,1351.772,3034.13,1353.532Z" transform="translate(-2534.705 -1127.677)" fill="#ffa9a4"/>
    <path id="Path_3219" data-name="Path 3219" d="M3026.232,1359.383c-.11,2.627.574,6.137,5.012,6.137,7.1,0,4.384,2.3,9.605,5.011,5.176,2.693,28.2,7.832,32.052-12.842-.972,16.839-10.837,18.9-10.837,18.9a10.966,10.966,0,0,1-1.506-.217l-22.646-1.6a4.534,4.534,0,0,1-3.091-1.539,4.536,4.536,0,0,0-4.225-1.477l-.584.106a4.532,4.532,0,0,1-2.824-.4l-2.509-1.243C3025.273,1365.974,3025.855,1361.952,3026.232,1359.383Z" transform="translate(-2526.806 -1133.528)" fill="#ffa9a4"/>
    <path id="Path_3220" data-name="Path 3220" d="M2433.846,1363a8.818,8.818,0,0,1,.657,1.4,11.6,11.6,0,0,1,.453,1.489,10.662,10.662,0,0,1,.278,3.12,8.3,8.3,0,0,1-.253,1.575,7.038,7.038,0,0,1-.59,1.491,5.926,5.926,0,0,1-.957,1.274,5.259,5.259,0,0,1-1.264.918,9.462,9.462,0,0,0,.948-1.179,7.736,7.736,0,0,0,.68-1.3,8.911,8.911,0,0,0,.414-1.391l.067-.356c.021-.12.034-.241.051-.361s.031-.241.043-.363.025-.243.029-.366a16.91,16.91,0,0,0-.09-2.956C2434.209,1365.006,2434.045,1364.011,2433.846,1363Z" transform="translate(-2031.581 -1137.966)" fill="#ffa9a4"/>
    <path id="Path_3221" data-name="Path 3221" d="M3168.768,1357.868c-.21,1.107-.389,2.2-.5,3.284a19.3,19.3,0,0,0-.107,3.254,10.8,10.8,0,0,0,.2,1.591,8.641,8.641,0,0,0,.447,1.527,7.549,7.549,0,0,0,.758,1.413,9.1,9.1,0,0,0,1.085,1.246,5.524,5.524,0,0,1-1.4-.985,6.291,6.291,0,0,1-1.038-1.4,8.089,8.089,0,0,1-.888-3.349,13.078,13.078,0,0,1,1.445-6.593Z" transform="translate(-2646.017 -1133.67)" fill="#ffa9a4"/>
    <path id="Path_3222" data-name="Path 3222" d="M1701.595,1513.07c-.036.831-.075,1.642-.085,2.437a18.471,18.471,0,0,0,.1,2.364,9.789,9.789,0,0,0,.194,1.149,6.87,6.87,0,0,0,.344,1.1,5.563,5.563,0,0,0,.543,1.02,6.464,6.464,0,0,0,.785.916,3.537,3.537,0,0,1-1.09-.642,4.239,4.239,0,0,1-.821-1,5.155,5.155,0,0,1-.522-1.185,6.814,6.814,0,0,1-.259-1.258,9.089,9.089,0,0,1,.079-2.519A8.547,8.547,0,0,1,1701.595,1513.07Z" transform="translate(-1420.237 -1263.396)" fill="#ffa9a4"/>
    <path id="Path_3223" data-name="Path 3223" d="M1208.768,1511.8a9.829,9.829,0,0,1,.951,2.548,10.518,10.518,0,0,1,.276,2.735,7.949,7.949,0,0,1-.164,1.386,6.019,6.019,0,0,1-.445,1.336,4.842,4.842,0,0,1-.773,1.174,4.043,4.043,0,0,1-1.092.842,6.97,6.97,0,0,0,.758-1.082,6.323,6.323,0,0,0,.493-1.175,7.747,7.747,0,0,0,.276-1.238,10.943,10.943,0,0,0,.115-1.274,20.655,20.655,0,0,0-.085-2.593C1208.995,1513.577,1208.885,1512.7,1208.768,1511.8Z" transform="translate(-1008.009 -1262.335)" fill="#ffa9a4"/>
    <path id="Path_3224" data-name="Path 3224" d="M3147.077,2476.7s-2.543,1.018-2.034,6.1c-.34,1.527-5.254,3.392-2.035,15.262h38.659s4.071-13.057-10.18-14.583-12.547-4.578-12.547-7.461S3149.112,2473.809,3147.077,2476.7Z" transform="translate(-2624.796 -2066.687)" fill="#f05a28"/>
    <path id="Path_3225" data-name="Path 3225" d="M2254.113,2476.7s2.545,1.018,2.036,6.1c.338,1.527,5.254,3.392,2.034,15.262h-38.662s-4.071-13.057,10.179-14.583,12.55-4.578,12.55-7.461S2252.078,2473.809,2254.113,2476.7Z" transform="translate(-1853.398 -2066.687)" fill="#f05a28"/>
    <ellipse id="Ellipse_405" data-name="Ellipse 405" cx="1.977" cy="1.261" rx="1.977" ry="1.261" transform="translate(473.103 183.311) rotate(-76.27)" fill="#ffa9a4"/>
    <path id="Path_3226" data-name="Path 3226" d="M2876.069,1082.916a5.6,5.6,0,0,1,.255-2.66,3.313,3.313,0,0,1,.313-.622,1.9,1.9,0,0,1,.492-.524,1.3,1.3,0,0,1,.677-.248,1.377,1.377,0,0,1,.67.138,1.912,1.912,0,0,0-.635.064,1.256,1.256,0,0,0-.506.3,2.923,2.923,0,0,0-.615,1.041,10.2,10.2,0,0,0-.36,1.227C2876.256,1082.052,2876.172,1082.479,2876.069,1082.916Z" transform="translate(-2402.546 -900.48)" fill="#ffa9a4"/>
    <ellipse id="Ellipse_406" data-name="Ellipse 406" cx="1.568" cy="1" rx="1.568" ry="1" transform="translate(249.819 214.753) rotate(-76.27)" fill="#ffa9a4"/>
    <path id="Path_3227" data-name="Path 3227" d="M1515.746,1279.771a4.1,4.1,0,0,1-.028-1.061,4.183,4.183,0,0,1,.23-1.049,1.993,1.993,0,0,1,.635-.91,1.028,1.028,0,0,1,.537-.2,1.1,1.1,0,0,1,.532.11,1.446,1.446,0,0,0-.5.051.976.976,0,0,0-.4.236,1.6,1.6,0,0,0-.284.381,2.75,2.75,0,0,0-.205.445,7.933,7.933,0,0,0-.286.975Z" transform="translate(-1265.585 -1065.713)" fill="#ffa9a4"/>
    <ellipse id="Ellipse_407" data-name="Ellipse 407" cx="1" cy="1.568" rx="1" ry="1.568" transform="translate(228.52 212.243) rotate(-13.73)" fill="#ffa9a4"/>
    <path id="Path_3228" data-name="Path 3228" d="M1388.831,1280.225l-.226-1.02a8.036,8.036,0,0,0-.286-.974,3.049,3.049,0,0,0-.205-.447,1.6,1.6,0,0,0-.284-.381,1.015,1.015,0,0,0-.4-.23,1.521,1.521,0,0,0-.5-.051,1.1,1.1,0,0,1,.532-.11,1.047,1.047,0,0,1,.537.2,2,2,0,0,1,.635.909,4.432,4.432,0,0,1,.2,2.111Z" transform="translate(-1157.961 -1066.097)" fill="#ffa9a4"/>
    <ellipse id="Ellipse_408" data-name="Ellipse 408" cx="1.261" cy="1.977" rx="1.261" ry="1.977" transform="translate(449.345 180.37) rotate(-13.73)" fill="#ffa9a4"/>
    <path id="Path_3229" data-name="Path 3229" d="M2734.952,1084.824c-.1-.435-.187-.862-.285-1.284a10.287,10.287,0,0,0-.36-1.226,2.914,2.914,0,0,0-.615-1.041,1.236,1.236,0,0,0-.506-.3,1.825,1.825,0,0,0-.635-.064,1.376,1.376,0,0,1,.67-.138,1.28,1.28,0,0,1,.677.248,1.894,1.894,0,0,1,.493.524,3.275,3.275,0,0,1,.314.622,5.6,5.6,0,0,1,.254,2.658Z" transform="translate(-2282.641 -902.076)" fill="#ffa9a4"/>
    <path id="Path_3230" data-name="Path 3230" d="M2803.638,1082.61l-1.219,5.977,2.542-.695" transform="translate(-2341.039 -903.614)" fill="none" stroke="#092e5e" stroke-linecap="round" stroke-miterlimit="10" stroke-width="2.54"/>
    <ellipse id="Ellipse_409" data-name="Ellipse 409" cx="0.974" cy="1.532" rx="0.974" ry="1.532" transform="translate(456.557 176.936)" fill="#092e5e"/>
    <ellipse id="Ellipse_410" data-name="Ellipse 410" cx="0.974" cy="1.532" rx="0.974" ry="1.532" transform="translate(467.277 176.936)" fill="#092e5e"/>
    <path id="Path_3231" data-name="Path 3231" d="M2762.83,1048.049s1.853-4.151,5.225-.4" transform="translate(-2307.949 -873.081)" fill="none" stroke="#092e5e" stroke-linecap="round" stroke-miterlimit="10" stroke-width="10.17"/>
    <path id="Path_3232" data-name="Path 3232" d="M2831.12,1047.479s2.435-3.271,4.732.348" transform="translate(-2365.027 -873.117)" fill="none" stroke="#092e5e" stroke-linecap="round" stroke-miterlimit="10" stroke-width="10.17"/>
    <path id="Path_3233" data-name="Path 3233" d="M1451.544,1286.08l-.984,4.826,2.052-.562" transform="translate(-1211.143 -1073.676)" fill="none" stroke="#092e5e" stroke-linecap="round" stroke-miterlimit="10" stroke-width="2.05"/>
    <ellipse id="Ellipse_411" data-name="Ellipse 411" cx="0.786" cy="1.236" rx="0.786" ry="1.236" transform="translate(235.522 210.741)" fill="#092e5e"/>
    <ellipse id="Ellipse_412" data-name="Ellipse 412" cx="0.786" cy="1.236" rx="0.786" ry="1.236" transform="translate(244.175 210.741)" fill="#092e5e"/>
    <path id="Path_3234" data-name="Path 3234" d="M1418.6,1258.178s1.5-3.351,4.218-.328" transform="translate(-1184.431 -1049.024)" fill="none" stroke="#092e5e" stroke-linecap="round" stroke-miterlimit="10" stroke-width="2.54"/>
    <path id="Path_3235" data-name="Path 3235" d="M1473.73,1257.721s1.97-2.64,3.821.282" transform="translate(-1230.509 -1049.058)" fill="none" stroke="#092e5e" stroke-linecap="round" stroke-miterlimit="10" stroke-width="2.54"/>
    <path id="Path_3236" data-name="Path 3236" d="M2788.3,1131.664s4.876,2.854,10.787-.973" transform="translate(-2329.237 -943.799)" fill="none" stroke="#ff6d88" stroke-linecap="round" stroke-miterlimit="10" stroke-width="2.54"/>
    <path id="Path_3237" data-name="Path 3237" d="M2768.8,938.512s1.253-5.15,6.752-2.366,9.884,6.4,13.017,5.08" transform="translate(-2312.939 -780.508)" fill="none" stroke="#314f82" stroke-miterlimit="10" stroke-width="2.54"/>
    <path id="Path_3238" data-name="Path 3238" d="M2753.04,986.07a4.363,4.363,0,0,0,.315,1.662,3.834,3.834,0,0,0,.948,1.369,4.732,4.732,0,0,0,1.4.888,6.911,6.911,0,0,0,1.616.437,13.248,13.248,0,0,0,3.364.043,8.008,8.008,0,0,0,1.632-.338,4.516,4.516,0,0,0,1.437-.77,4.718,4.718,0,0,0,1.063-1.241c.294-.473.542-.985.848-1.478a5.5,5.5,0,0,1,.521-.718,3.662,3.662,0,0,1,.67-.6,4.011,4.011,0,0,1,1.659-.627,19.489,19.489,0,0,1,3.448-.214,12.231,12.231,0,0,1,1.713.174,6.355,6.355,0,0,1,1.642.481,4.741,4.741,0,0,0-.821-.235c-.278-.059-.558-.1-.841-.136a12.531,12.531,0,0,0-1.7-.08,19.375,19.375,0,0,0-3.379.328,3.91,3.91,0,0,0-1.506.609,3.269,3.269,0,0,0-.593.549,5.283,5.283,0,0,0-.471.675c-.284.479-.534.995-.837,1.5a5.127,5.127,0,0,1-1.149,1.351,4.878,4.878,0,0,1-1.57.831,8.048,8.048,0,0,1-1.717.345,12.67,12.67,0,0,1-3.461-.12,7.167,7.167,0,0,1-1.666-.511,4.894,4.894,0,0,1-1.442-.985A4.074,4.074,0,0,1,2753.04,986.07Z" transform="translate(-2299.754 -821.593)" fill="#4377a2"/>
    <path id="Path_3239" data-name="Path 3239" d="M1447.74,1324.964s.906-2.054,3.8-.243A3.69,3.69,0,0,1,1447.74,1324.964Z" transform="translate(-1208.786 -1105.348)" fill="#ffa9a4"/>
    <path id="Path_3240" data-name="Path 3240" d="M1444.54,1326.83a3.831,3.831,0,0,0,4.786-.541" transform="translate(-1206.111 -1107.283)" fill="none" stroke="#ff6d88" stroke-linecap="round" stroke-miterlimit="10" stroke-width="2.54"/>
    <path id="Path_3241" data-name="Path 3241" d="M1456.129,1341.749a2.116,2.116,0,0,0,1.806-.049C1457.771,1343.134,1456.029,1342.861,1456.129,1341.749Z" transform="translate(-1215.794 -1120.164)" fill="#ffa9a4"/>
    <path id="Path_3242" data-name="Path 3242" d="M1516.11,1251.51a20.609,20.609,0,0,1,2.156.89c.7.328,1.381.678,2.056,1.044s1.342.749,2,1.149a22.045,22.045,0,0,1,1.936,1.3,13.02,13.02,0,0,1-2.233-.713,21.349,21.349,0,0,1-2.1-1q-1.02-.557-1.982-1.21A14.5,14.5,0,0,1,1516.11,1251.51Z" transform="translate(-1265.93 -1044.782)" fill="#314f82"/>
    <path id="Path_3243" data-name="Path 3243" d="M1372.27,1213.236a5.966,5.966,0,0,1-1.336,0,6.652,6.652,0,0,1-1.327-.279,5.128,5.128,0,0,1-1.26-.6,3.6,3.6,0,0,1-1.032-1.023,3.083,3.083,0,0,1-.329-.673,2.335,2.335,0,0,1-.1-.361c-.013-.061-.028-.121-.038-.182l-.016-.184a3.615,3.615,0,0,1,.164-1.418,5.861,5.861,0,0,1,1.376-2.309,11.9,11.9,0,0,0-.736,2.454,3.173,3.173,0,0,0,.378,2.219,4.517,4.517,0,0,0,1.836,1.466A15.352,15.352,0,0,0,1372.27,1213.236Z" transform="translate(-1141.155 -1006.92)" fill="#314f82"/>
    <path id="Path_3244" data-name="Path 3244" d="M1487.555,1185.37a9.038,9.038,0,0,1-.47,1.126c-.176.363-.366.719-.568,1.067a12.067,12.067,0,0,1-.657,1.021,8.9,8.9,0,0,1-.75.962,8.927,8.927,0,0,1,.474-1.118c.174-.365.366-.719.57-1.067s.42-.688.657-1.02A9.1,9.1,0,0,1,1487.555,1185.37Z" transform="translate(-1240.021 -989.501)" fill="#314f82"/>
    <path id="Path_3245" data-name="Path 3245" d="M1388.721,1170.33s4.908,1.253-3.028,1.356-12.111,8.249-6.9,6.9" transform="translate(-1149.232 -976.931)" fill="none" stroke="#092e5e" stroke-miterlimit="10" stroke-width="2.54"/>
    <path id="Path_3246" data-name="Path 3246" d="M1525.43,1195.12c.105.419,5.011,6.579,8.771,5.325s4.28,8.045-.731,5.747" transform="translate(-1273.72 -997.65)" fill="none" stroke="#092e5e" stroke-miterlimit="10" stroke-width="2.54"/>
    <path id="Path_3247" data-name="Path 3247" d="M1518.7,1318.91a4,4,0,0,1-2.4,3.759c-2.609,1.253-3.448.522-3.133,3.236s-5.534,4.6-5.325-1.253" transform="translate(-1259.016 -1101.115)" fill="none" stroke="#092e5e" stroke-miterlimit="10" stroke-width="5.09"/>
    <path id="Path_3248" data-name="Path 3248" d="M1389.584,1356.876s-5.689,1.353-5.185-4.346" transform="translate(-1155.819 -1129.215)" fill="none" stroke="#092e5e" stroke-miterlimit="10" stroke-width="5.09"/>
    <ellipse id="Ellipse_413" data-name="Ellipse 413" cx="2.676" cy="5.382" rx="2.676" ry="5.382" transform="translate(319.672 205.417) rotate(-13.31)" fill="#ff7724"/>
    <ellipse id="Ellipse_414" data-name="Ellipse 414" cx="5.382" cy="2.676" rx="5.382" ry="2.676" transform="translate(359.472 167.173) rotate(-49.68)" fill="#ff7724"/>
  </g>
</svg>
