<svg xmlns="http://www.w3.org/2000/svg" width="24.212" height="24.211" viewBox="0 0 24.212 24.211">
  <path id="new_instagram_new_instagram_instagram_2016_instagram_logo_facebook_icon" data-name="new, instagram, new instagram, instagram 2016, instagram logo, facebook icon" d="M65.762,51.781a1.4,1.4,0,1,1-1.4-1.4,1.4,1.4,0,0,1,1.4,1.4Zm4.449,6.325v.018l-.08,5.079A7.009,7.009,0,0,1,63.2,70.131l-5.1.08h-.018l-5.079-.079A7.009,7.009,0,0,1,46.08,63.2l-.08-5.1v-.018l.079-5.079a7.009,7.009,0,0,1,6.929-6.929l5.1-.08h.018l5.079.079a7.009,7.009,0,0,1,6.929,6.929Zm-2.255,0-.079-5.061a4.765,4.765,0,0,0-4.711-4.711l-5.061-.079-5.061.079a4.765,4.765,0,0,0-4.711,4.711l-.079,5.061.079,5.061a4.765,4.765,0,0,0,4.711,4.711l5.061.079,5.061-.079a4.765,4.765,0,0,0,4.711-4.711Zm-3.634,0a6.217,6.217,0,1,1-6.217-6.217A6.217,6.217,0,0,1,64.322,58.106Zm-2.254,0a3.962,3.962,0,1,0-3.962,3.962,3.962,3.962,0,0,0,3.962-3.962Z" transform="translate(-46 -46)" fill="#03a092"/>
</svg>
