<svg xmlns="http://www.w3.org/2000/svg" width="24.212" height="24.212" viewBox="0 0 24.212 24.212">
  <path id="social_business_network_linkedin_icon" data-name="social, business, network, linkedin icon" d="M46.307,63.153H51.5V79.49H46.307Zm2.629-7.875a2.823,2.823,0,1,0-.068,5.644H48.9a2.824,2.824,0,1,0,.035-5.644Zm15.3,7.491a5.121,5.121,0,0,0-4.677,2.7V63.153h-5.19c.069,1.533,0,16.337,0,16.337h5.19V70.366a3.9,3.9,0,0,1,.171-1.326,2.858,2.858,0,0,1,2.662-1.986c1.879,0,2.63,1.5,2.63,3.694v8.741h5.19V70.122C70.212,65.1,67.652,62.769,64.236,62.769Z" transform="translate(-46 -55.278)" fill="#03a092"/>
</svg>
