<svg xmlns="http://www.w3.org/2000/svg" width="63.884" height="64" viewBox="0 0 63.884 64">
  <g id="_051-phone-call-6" data-name="051-phone-call-6" transform="translate(-0.058)">
    <path id="Shape" d="M55.427,64H55.4c-.254,0-.513-.012-.769-.034l-.023,0-.023,0A61.287,61.287,0,0,1,27.989,54.5,60.55,60.55,0,0,1,9.5,36.012,61.3,61.3,0,0,1,.04,9.294c0-.007,0-.013,0-.02s0-.014,0-.02A8.488,8.488,0,0,1,7.726.035C7.965.013,8.22,0,8.482,0H17.4A8.513,8.513,0,0,1,25.8,7.3l0,.023a35.413,35.413,0,0,0,1.926,7.729A8.508,8.508,0,0,1,25.821,24l0,.005,0,.005-2.325,2.324A44.672,44.672,0,0,0,37.543,40.4l2.325-2.324,0-.005,0-.005a8.566,8.566,0,0,1,5.981-2.45,8.429,8.429,0,0,1,2.976.54,35.3,35.3,0,0,0,7.724,1.923h.023a8.494,8.494,0,0,1,7.3,8.582v8.826A8.489,8.489,0,0,1,55.427,64ZM8.484,5.171c-.087,0-.183,0-.293.014A3.327,3.327,0,0,0,5.183,8.771a56.1,56.1,0,0,0,8.66,24.439l.012.019A55.343,55.343,0,0,0,30.772,50.146l.02.013a56.11,56.11,0,0,0,24.323,8.659c.093.008.183.012.268.012h.024a3.319,3.319,0,0,0,3.3-3.332V46.631c0-.011,0-.022,0-.032s0-.022,0-.032A3.319,3.319,0,0,0,55.867,43.2a40.556,40.556,0,0,1-8.847-2.206,3.333,3.333,0,0,0-3.5.741l-3.742,3.743a2.587,2.587,0,0,1-3.106.419A49.85,49.85,0,0,1,17.986,27.214a2.592,2.592,0,0,1,.419-3.106l3.743-3.743a3.33,3.33,0,0,0,.743-3.5,40.56,40.56,0,0,1-2.208-8.852A3.336,3.336,0,0,0,17.4,5.171H8.484Z" transform="translate(0.058)" fill="#ff6413"/>
  </g>
</svg>
