<svg xmlns="http://www.w3.org/2000/svg" width="24.212" height="24.211" viewBox="0 0 24.212 24.211">
  <path id="snapchat" d="M20.964,21.117c.92-.154,2.824-.509,3.188-1.4a.619.619,0,0,0-.414-.892h0c-3.237-.568-4.7-4.1-4.755-4.253-.9-1.714,1.538-1.426,2.495-2.472.934-1.025-.564-2.135-1.5-1.664a1.724,1.724,0,0,1-1.344.229c.091-1.623.342-4.314-.274-5.783A6.858,6.858,0,0,0,7.331,2.623c-2.239,2.263-1.964,4.59-1.754,8.039-.7.324-1.384-.319-1.886-.319a1.264,1.264,0,0,0-1.238.914c-.125.722.61,1.186,1.247,1.454,1.085.454,2.116.588,1.544,1.827a.177.177,0,0,0-.012.029A6.864,6.864,0,0,1,.475,18.819a.624.624,0,0,0-.416.892v0c.36.895,2.282,1.253,3.189,1.4.28.559.066,1.664.934,1.664a17.092,17.092,0,0,1,1.826-.236,3.524,3.524,0,0,1,2.6,1.016,5.1,5.1,0,0,0,6.986,0v0a3.875,3.875,0,0,1,3.874-.87c1.584.327,1.122-.816,1.489-1.575Z" transform="translate(-0.001 -0.745)" fill="#03a092"/>
</svg>
