<svg xmlns="http://www.w3.org/2000/svg" width="66.878" height="63.861" viewBox="0 0 66.878 63.861">
  <g id="_032-star" data-name="032-star" transform="translate(0.002 -0.069)">
    <path id="Shape" d="M52.431,63.861a2.71,2.71,0,0,1-1.257-.311L33.437,54.223,15.7,63.551A2.7,2.7,0,0,1,11.78,60.7l3.387-19.745L.816,26.981a2.7,2.7,0,0,1,1.495-4.608l19.834-2.9,8.87-17.969A2.718,2.718,0,0,1,33.437,0,2.686,2.686,0,0,1,35.86,1.506l8.869,17.969,19.834,2.9a2.7,2.7,0,0,1,1.495,4.608L51.707,40.957,55.094,60.7a2.7,2.7,0,0,1-2.662,3.158ZM33.437,48.47a2.71,2.71,0,0,1,1.257.311l14.149,7.441-2.7-15.75a2.7,2.7,0,0,1,.778-2.392L58.369,26.928,42.543,24.615a2.7,2.7,0,0,1-2.031-1.478L33.437,8.8,26.362,23.137a2.7,2.7,0,0,1-2.032,1.478L8.505,26.928,19.954,38.079a2.7,2.7,0,0,1,.778,2.391l-2.7,15.751L32.18,48.78A2.71,2.71,0,0,1,33.437,48.47Z" transform="translate(0 0.069)" fill="#ff6413"/>
  </g>
</svg>
