<svg id="_114-clock" data-name="114-clock" xmlns="http://www.w3.org/2000/svg" width="64" height="64" viewBox="0 0 64 64">
  <path id="Shape" d="M32,64A32,32,0,0,1,9.373,9.373,32,32,0,1,1,54.627,54.627,31.787,31.787,0,0,1,32,64ZM32,5.171A26.829,26.829,0,1,0,58.829,32,26.86,26.86,0,0,0,32,5.171Z" fill="#ff6413"/>
  <path id="Path" d="M13.238,27.23,5.17,19.163V2.585a2.585,2.585,0,0,0-5.17,0V20.234a2.585,2.585,0,0,0,.757,1.828l8.824,8.824a2.585,2.585,0,1,0,3.656-3.656Z" transform="translate(29.415 11.766)" fill="#ff6413"/>
</svg>
