<svg xmlns="http://www.w3.org/2000/svg" width="26.902" height="24.211" viewBox="0 0 26.902 24.211">
  <path id="social_twitter_icon" data-name="social, twitter icon" d="M70.148,91.369c.01.262.016.526.016.79,0,8.077-5.551,17.391-15.7,17.391A14.539,14.539,0,0,1,46,106.8a10.16,10.16,0,0,0,1.317.086,10.415,10.415,0,0,0,6.854-2.617,5.629,5.629,0,0,1-5.156-4.244,5.015,5.015,0,0,0,2.493-.105,5.994,5.994,0,0,1-4.427-5.993v-.077a5.1,5.1,0,0,0,2.5.765,6.306,6.306,0,0,1-2.456-5.088,6.6,6.6,0,0,1,.747-3.073,15.226,15.226,0,0,0,11.376,6.387,6.769,6.769,0,0,1-.143-1.393c0-3.376,2.471-6.112,5.519-6.112a5.278,5.278,0,0,1,4.029,1.93,10.44,10.44,0,0,0,3.505-1.484,6.064,6.064,0,0,1-2.427,3.382A10.2,10.2,0,0,0,72.9,88.2,11.961,11.961,0,0,1,70.148,91.369Z" transform="translate(-46 -85.339)" fill="#03a092" fill-rule="evenodd"/>
</svg>
