<svg xmlns="http://www.w3.org/2000/svg" width="24.212" height="24.211" viewBox="0 0 24.212 24.211">
  <path id="whatsapp" d="M20.934,3.519A12.066,12.066,0,0,0,.351,12a11.932,11.932,0,0,0,1.609,6L.25,24.212l6.391-1.668A12.088,12.088,0,0,0,12.4,24h.005a12.044,12.044,0,0,0,12.055-12A11.9,11.9,0,0,0,20.934,3.519ZM12.406,21.977h0a10.044,10.044,0,0,1-5.1-1.39l-.366-.216-3.792.99,1.012-3.68L3.918,17.3A9.968,9.968,0,0,1,12.41,2.026a9.976,9.976,0,1,1,0,19.951Zm5.5-7.468c-.3-.15-1.782-.875-2.058-.975s-.477-.15-.678.15-.778.975-.954,1.175-.351.225-.653.075a8.236,8.236,0,0,1-2.422-1.488A9.049,9.049,0,0,1,9.462,11.37c-.176-.3,0-.447.132-.612a8.481,8.481,0,0,0,.753-1.025.549.549,0,0,0-.025-.525c-.075-.15-.678-1.626-.928-2.226-.245-.584-.493-.505-.678-.515s-.376-.01-.577-.01a1.109,1.109,0,0,0-.8.375,3.356,3.356,0,0,0-1.054,2.5,5.817,5.817,0,0,0,1.23,3.1,13.4,13.4,0,0,0,5.146,4.526,17.3,17.3,0,0,0,1.717.632,4.148,4.148,0,0,0,1.9.119A3.1,3.1,0,0,0,18.3,16.285a2.494,2.494,0,0,0,.176-1.426C18.4,14.734,18.2,14.659,17.9,14.509Zm0,0" transform="translate(-0.25)" fill="#03a092" fill-rule="evenodd"/>
</svg>
