<svg id="Group_6481" data-name="Group 6481" xmlns="http://www.w3.org/2000/svg" width="35.651" height="24.211" viewBox="0 0 35.651 24.211">
  <path id="Path_2960" data-name="Path 2960" d="M34.916,3.788A4.4,4.4,0,0,0,31.774.741C28.985,0,17.825,0,17.825,0S6.666,0,3.876.712A4.49,4.49,0,0,0,.734,3.788,44.311,44.311,0,0,0,0,12.106s0,5.64.734,8.317a4.4,4.4,0,0,0,3.142,3.048c2.819.741,13.949.741,13.949.741s11.159,0,13.949-.712a4.4,4.4,0,0,0,3.142-3.048,44.313,44.313,0,0,0,.734-8.317S35.68,6.494,34.916,3.788Zm0,0" transform="translate(0 0)" fill="#03a092"/>
  <path id="Path_2961" data-name="Path 2961" d="M204.969,112.853l9.28-5.184-9.28-5.184Zm0,0" transform="translate(-190.697 -95.563)"/>
</svg>
